<svg width="198" height="42" viewBox="0 0 198 42" fill="none" xmlns="http://www.w3.org/2000/svg">
<path d="M38.2957 15.3146H43.1569V12.3045H38.2957V9.56873H47.1262V6.51514H38.2957H37.0277H34.5137V21.3575H37.0277H38.2957H47.2913V18.3039H38.2957V15.3146Z" fill="white"/>
<path d="M58.8166 6.51514L51.918 21.3575H55.8447L57.1383 18.4307H64.2394L65.5279 21.3575H69.6215L62.7212 6.51514H58.8166ZM58.4506 15.464L60.6957 10.3834L62.9322 15.464H58.4506Z" fill="white"/>
<path d="M86.4162 7.39578C85.2111 6.81042 83.7576 6.51514 82.0538 6.51514H78.2292H77.1483H74.4062V21.3575H76.6088H78.2292H82.0521C83.7559 21.3575 85.2111 21.0675 86.4145 20.4891C87.6196 19.9089 88.5336 19.0717 89.1566 17.9774C89.7796 16.8814 90.0911 15.5491 90.0911 13.9806C90.0911 12.426 89.7796 11.0868 89.1566 9.96302C88.5353 8.83747 87.6213 7.98288 86.4162 7.39578ZM85.7201 16.3221C85.4222 16.9508 84.9712 17.425 84.3703 17.7429C83.7678 18.0608 83.024 18.2188 82.1372 18.2188H78.2292V9.65384H82.1355C83.0223 9.65384 83.7661 9.81712 84.3686 10.1419C84.9712 10.4667 85.4205 10.9548 85.7184 11.6045C86.0162 12.2541 86.1643 13.0461 86.1643 13.9789C86.166 14.9116 86.0179 15.6933 85.7201 16.3221Z" fill="white"/>
<path d="M108.024 7.23598C106.758 6.61414 105.236 6.30322 103.465 6.30322C101.718 6.30322 100.21 6.61761 98.9353 7.2464C97.6604 7.87518 96.6783 8.7593 95.9855 9.89701C95.2928 11.0347 94.9473 12.3809 94.9473 13.9372C94.9473 15.4918 95.2928 16.8379 95.9855 17.9774C96.6783 19.1151 97.6621 19.9992 98.9353 20.628C100.21 21.2568 101.72 21.5712 103.465 21.5712C105.238 21.5712 106.758 21.2568 108.024 20.628C109.292 19.9992 110.268 19.1151 110.954 17.9774C111.64 16.8397 111.982 15.4935 111.982 13.9372C111.982 12.3826 111.64 11.033 110.954 9.88659C110.27 8.74193 109.292 7.85781 108.024 7.23598ZM107.568 16.4176C107.23 17.0829 106.717 17.5918 106.031 17.9444C105.345 18.2987 104.491 18.4742 103.466 18.4742C102.455 18.4742 101.613 18.297 100.942 17.9444C100.27 17.5918 99.7574 17.0794 99.405 16.4072C99.051 15.7367 98.8757 14.9116 98.8757 13.9372C98.8757 12.961 99.051 12.1394 99.405 11.4672C99.7591 10.7968 100.271 10.2826 100.942 9.93001C101.614 9.57741 102.455 9.40024 103.466 9.40024C104.491 9.40024 105.347 9.57741 106.031 9.93001C106.717 10.2844 107.23 10.7968 107.568 11.4672C107.907 12.1394 108.077 12.9628 108.077 13.9372C108.077 14.9255 107.907 15.7523 107.568 16.4176Z" fill="white"/>
<path d="M120.109 6.51514H117.574V21.3575H121.397V16.0789H126.216V12.9819H121.397V9.65384H130.165V6.51514H121.397H120.109Z" fill="white"/>
<path d="M138.302 6.51514H135.768V21.3575H139.59V16.0789H144.409V12.9819H139.59V9.65384H148.358V6.51514H139.59H138.302Z" fill="white"/>
<path d="M157.561 6.51514H153.738V21.3575H157.561V6.51514Z" fill="white"/>
<path d="M189.003 18.3039V15.3146H193.864V12.3045H189.003V9.56873H197.833V6.51514H189.003H187.735H185.221V21.3575H187.735H189.003H198V18.3039H189.003Z" fill="white"/>
<path d="M0 27.8593H28.9118V0H0V27.8593ZM6.47307 6.50843H9.79726V12.1796H19.2507V6.50843H22.534V21.3508H19.2507V15.1915H9.79726V21.3508H6.47307V6.50843Z" fill="white"/>
<path d="M175.928 16.4176C175.589 17.0829 175.077 17.5918 174.391 17.9444C173.705 18.2987 172.85 18.4742 171.826 18.4742C170.815 18.4742 169.972 18.297 169.301 17.9444C168.629 17.5918 168.117 17.0794 167.764 16.4072C167.412 15.7367 167.235 14.9116 167.235 13.9372C167.235 12.961 167.412 12.1377 167.764 11.4672C168.118 10.7968 168.631 10.2826 169.301 9.93002C169.974 9.57741 170.815 9.40024 171.826 9.40024C172.85 9.40024 173.706 9.57741 174.391 9.93002C175.077 10.2844 175.589 10.7968 175.928 11.4672C176.057 11.7226 176.152 12.0057 176.232 12.3045H180.202C180.042 11.4169 179.747 10.6109 179.313 9.88659C178.627 8.74193 177.65 7.85781 176.384 7.23598C175.117 6.61414 173.596 6.30322 171.824 6.30322C170.079 6.30322 168.57 6.61761 167.295 7.2464C166.02 7.87518 165.038 8.7593 164.345 9.89701C163.652 11.0347 163.307 12.3809 163.307 13.9372C163.307 15.4918 163.654 16.8379 164.345 17.9757C165.038 19.1134 166.021 19.9975 167.295 20.6263C168.57 21.2551 170.079 21.5695 171.824 21.5695C173.598 21.5695 175.117 21.2551 176.384 20.6263C177.652 19.9975 178.627 19.1134 179.313 17.9757C179.788 17.1888 180.093 16.3012 180.239 15.3146H176.304C176.22 15.7211 176.094 16.0893 175.928 16.4176Z" fill="white"/>
<path d="M190.2 33.4746H192.841L195.38 38.9993V33.4746H197.183V41.3998H194.53L192.003 35.8866V41.3998H190.2V33.4746Z" fill="#0FAC5A"/>
<path d="M187.008 37.9542V36.8861C187.008 35.3814 186.365 34.8646 185.09 34.8646C183.815 34.8646 183.172 35.3814 183.172 36.8861V37.9542C183.172 39.5393 183.815 40.0102 185.09 40.0102C186.365 40.0102 187.008 39.5393 187.008 37.9542ZM181.197 37.3455C181.197 34.3017 182.575 33.314 185.09 33.314C187.617 33.314 188.996 34.3017 188.996 37.3455C188.996 40.55 187.617 41.5608 185.09 41.5608C182.575 41.5608 181.197 40.55 181.197 37.3455Z" fill="#0FAC5A"/>
<path d="M178.063 33.4746H179.993V41.3998H178.063V33.4746Z" fill="#0FAC5A"/>
<path d="M172.887 35.1171H170.578V33.4746H177.16V35.1171H174.828V41.3998H172.887V35.1171Z" fill="#0FAC5A"/>
<path d="M163.115 37.4144C163.115 34.3592 164.459 33.314 166.734 33.314C168.801 33.314 170.018 34.0605 170.214 36.0821H168.227C168.123 35.0943 167.595 34.8646 166.734 34.8646C165.78 34.8646 165.103 35.2321 165.103 36.7712V38.0691C165.103 39.5967 165.757 40.0102 166.734 40.0102C167.572 40.0102 168.1 39.7575 168.238 38.7927H170.225C169.995 40.7912 168.801 41.5608 166.734 41.5608C164.459 41.5608 163.115 40.5615 163.115 37.4144Z" fill="#0FAC5A"/>
<path d="M155.426 38.4365V33.4746H157.367V38.4365C157.367 39.6884 157.849 40.01 158.791 40.01C159.733 40.01 160.227 39.6884 160.227 38.4365V33.4746H161.973V38.4365C161.973 40.6418 160.985 41.5606 158.791 41.5606C156.597 41.5606 155.426 40.6418 155.426 38.4365Z" fill="#0FAC5A"/>
<path d="M147.778 33.4746H151.442C153.245 33.4746 154.268 34.3705 154.268 36.013C154.268 37.1386 153.808 37.9196 152.97 38.3101L154.451 41.3998H152.407L151.063 38.5973H149.708V41.3998H147.778V33.4746ZM152.292 36.1738V35.8866C152.292 35.3698 151.993 35.0252 151.304 35.0252H149.708V37.0352H151.304C151.97 37.0352 152.292 36.6906 152.292 36.1738Z" fill="#0FAC5A"/>
<path d="M142.603 35.1171H140.294V33.4746H146.876V35.1171H144.544V41.3998H142.603V35.1171Z" fill="#0FAC5A"/>
<path d="M133.344 38.9995H135.331C135.366 39.8609 135.859 40.0561 136.721 40.0561C137.571 40.0561 138.076 39.8494 138.076 39.1028C138.076 37.38 133.47 39.1488 133.47 35.7604C133.47 34.0261 134.653 33.314 136.606 33.314C138.536 33.314 139.765 33.9801 139.811 35.7145H137.823C137.789 34.9909 137.33 34.8186 136.606 34.8186C135.813 34.8186 135.343 35.0139 135.343 35.749C135.343 37.3685 139.948 35.7834 139.948 38.9765C139.948 40.8602 138.777 41.5608 136.721 41.5608C134.63 41.5608 133.424 40.8716 133.344 38.9995Z" fill="#0FAC5A"/>
<path d="M125.244 33.4746H127.886L130.424 38.9993V33.4746H132.228V41.3998H129.574L127.048 35.8866V41.3998H125.244V33.4746Z" fill="#0FAC5A"/>
<path d="M122.053 37.9542V36.8861C122.053 35.3814 121.41 34.8646 120.135 34.8646C118.86 34.8646 118.217 35.3814 118.217 36.8861V37.9542C118.217 39.5393 118.86 40.0102 120.135 40.0102C121.41 40.0102 122.053 39.5393 122.053 37.9542ZM116.241 37.3455C116.241 34.3017 117.62 33.314 120.135 33.314C122.662 33.314 124.04 34.3017 124.04 37.3455C124.04 40.55 122.662 41.5608 120.135 41.5608C117.62 41.5608 116.241 40.55 116.241 37.3455Z" fill="#0FAC5A"/>
<path d="M108.4 37.4144C108.4 34.3592 109.744 33.314 112.018 33.314C114.086 33.314 115.303 34.0605 115.499 36.0821H113.512C113.408 35.0943 112.88 34.8646 112.018 34.8646C111.065 34.8646 110.387 35.2321 110.387 36.7712V38.0691C110.387 39.5967 111.042 40.0102 112.018 40.0102C112.857 40.0102 113.385 39.7575 113.523 38.7927H115.51C115.28 40.7912 114.086 41.5608 112.018 41.5608C109.744 41.5608 108.4 40.5615 108.4 37.4144Z" fill="#0FAC5A"/>
</svg>
