<svg width="160" height="23" viewBox="0 0 160 23" fill="none" xmlns="http://www.w3.org/2000/svg">
<path d="M30.9459 12.6431H34.8739V10.158H30.9459V7.8994H38.0812V5.37842H30.9459H29.9212H27.8898V17.632H29.9212H30.9459H38.2146V15.111H30.9459V12.6431Z" fill="white"/>
<path d="M47.5274 5.37842L41.9532 17.632H45.1261L46.1714 15.2157H51.9093L52.9504 17.632H56.2582L50.6825 5.37842H47.5274ZM47.2317 12.7664L49.0458 8.57195L50.853 12.7664H47.2317Z" fill="white"/>
<path d="M69.8296 6.10546C68.8558 5.6222 67.6813 5.37842 66.3046 5.37842H63.2142H62.3408H60.1251V17.632H61.9048H63.2142H66.3032C67.6799 17.632 68.8558 17.3925 69.8282 16.915C70.802 16.436 71.5405 15.7448 72.0439 14.8414C72.5473 13.9366 72.799 12.8367 72.799 11.5418C72.799 10.2583 72.5473 9.15272 72.0439 8.22492C71.5419 7.29568 70.8033 6.59015 69.8296 6.10546ZM69.2671 13.4748C69.0264 13.9939 68.6619 14.3854 68.1764 14.6478C67.6895 14.9102 67.0885 15.0407 66.372 15.0407H63.2142V7.96966H66.3706C67.0871 7.96966 67.6882 8.10446 68.175 8.37262C68.6619 8.64078 69.025 9.04373 69.2657 9.58005C69.5064 10.1164 69.626 10.7703 69.626 11.5403C69.6274 12.3104 69.5078 12.9557 69.2671 13.4748Z" fill="white"/>
<path d="M87.291 5.97367C86.2678 5.4603 85.0382 5.20361 83.6065 5.20361C82.1954 5.20361 80.9768 5.46317 79.9467 5.98228C78.9165 6.50139 78.123 7.2313 77.5632 8.17057C77.0034 9.10984 76.7242 10.2212 76.7242 11.5061C76.7242 12.7895 77.0034 13.9009 77.5632 14.8416C78.123 15.7808 78.9179 16.5107 79.9467 17.0298C80.9768 17.549 82.1967 17.8085 83.6065 17.8085C85.0396 17.8085 86.2678 17.549 87.291 17.0298C88.3157 16.5107 89.1037 15.7808 89.658 14.8416C90.2123 13.9023 90.4887 12.7909 90.4887 11.5061C90.4887 10.2226 90.2123 9.10841 89.658 8.16196C89.1051 7.21696 88.3157 6.48705 87.291 5.97367ZM86.9224 13.5538C86.6487 14.103 86.2348 14.5232 85.6805 14.8143C85.1262 15.1068 84.4358 15.2517 83.6079 15.2517C82.7909 15.2517 82.1101 15.1054 81.5682 14.8143C81.025 14.5232 80.611 14.1002 80.3263 13.5452C80.0402 12.9917 79.8985 12.3105 79.8985 11.5061C79.8985 10.7002 80.0402 10.0219 80.3263 9.46691C80.6124 8.91338 81.0263 8.48892 81.5682 8.19781C82.1115 7.90671 82.7909 7.76044 83.6079 7.76044C84.4358 7.76044 85.1276 7.90671 85.6805 8.19781C86.2348 8.49035 86.6487 8.91338 86.9224 9.46691C87.1961 10.0219 87.3337 10.7016 87.3337 11.5061C87.3337 12.322 87.1961 13.0046 86.9224 13.5538Z" fill="white"/>
<path d="M97.0574 5.37842H95.0095V17.632H98.0985V13.274H101.992V10.7172H98.0985V7.96966H105.183V5.37842H98.0985H97.0574Z" fill="white"/>
<path d="M111.759 5.37842H109.711V17.632H112.8V13.274H116.694V10.7172H112.8V7.96966H119.885V5.37842H112.8H111.759Z" fill="white"/>
<path d="M127.322 5.37842H124.233V17.632H127.322V5.37842Z" fill="white"/>
<path d="M152.729 15.111V12.6431H156.657V10.158H152.729V7.8994H159.865V5.37842H152.729H151.705H149.673V17.632H151.705H152.729H160V15.111H152.729Z" fill="white"/>
<path d="M0 23H23.3631V0H0V23ZM5.23076 5.37322H7.91697V10.0552H15.5561V5.37322H18.2093V17.6268H15.5561V12.5418H7.91697V17.6268H5.23076V5.37322Z" fill="white"/>
<path d="M142.164 13.5538C141.891 14.103 141.477 14.5232 140.923 14.8143C140.368 15.1069 139.678 15.2517 138.85 15.2517C138.033 15.2517 137.352 15.1054 136.81 14.8143C136.267 14.5232 135.853 14.1002 135.568 13.5452C135.284 12.9917 135.141 12.3105 135.141 11.5061C135.141 10.7002 135.284 10.0204 135.568 9.46691C135.854 8.91338 136.268 8.48892 136.81 8.19782C137.353 7.90671 138.033 7.76044 138.85 7.76044C139.678 7.76044 140.37 7.90671 140.923 8.19782C141.477 8.49035 141.891 8.91338 142.164 9.46691C142.269 9.67771 142.346 9.91145 142.411 10.1581H145.618C145.489 9.42532 145.251 8.75995 144.9 8.16197C144.346 7.21696 143.556 6.48705 142.533 5.97367C141.51 5.4603 140.28 5.20361 138.848 5.20361C137.439 5.20361 136.219 5.46317 135.189 5.98228C134.159 6.50139 133.365 7.2313 132.805 8.17057C132.245 9.10984 131.966 10.2212 131.966 11.5061C131.966 12.7895 132.247 13.9009 132.805 14.8401C133.365 15.7794 134.16 16.5093 135.189 17.0284C136.219 17.5475 137.439 17.8071 138.848 17.8071C140.282 17.8071 141.51 17.5475 142.533 17.0284C143.558 16.5093 144.346 15.7794 144.9 14.8401C145.284 14.1905 145.53 13.4577 145.648 12.6432H142.468C142.401 12.9788 142.299 13.2828 142.164 13.5538Z" fill="white"/>
</svg>
