<svg width="137" height="29" viewBox="0 0 137 29" fill="none" xmlns="http://www.w3.org/2000/svg">
<path d="M26.4976 10.5966H29.8611V8.5138H26.4976V6.6209H32.6075V4.50806H26.4976H25.6202H23.8807V14.7778H25.6202H26.4976H32.7218V12.665H26.4976V10.5966Z" fill="#000025"/>
<path d="M40.6963 4.50806L35.923 14.7778H38.64L39.5351 12.7527H44.4485L45.34 14.7778H48.1724L43.398 4.50806H40.6963ZM40.4431 10.6999L41.9965 7.18456L43.544 10.6999H40.4431Z" fill="#000025"/>
<path d="M59.793 5.11739C58.9592 4.71237 57.9534 4.50806 56.7746 4.50806H54.1282H53.3804H51.4831V14.7778H53.007H54.1282H56.7734C57.9523 14.7778 58.9592 14.5771 59.7918 14.1769C60.6257 13.7755 61.2581 13.1962 61.6891 12.439C62.1202 11.6807 62.3357 10.7588 62.3357 9.67357C62.3357 8.59792 62.1202 7.67131 61.6891 6.89371C61.2593 6.11492 60.6268 5.52361 59.793 5.11739ZM59.3113 11.2937C59.1052 11.7287 58.7931 12.0568 58.3774 12.2768C57.9605 12.4967 57.4458 12.6061 56.8323 12.6061H54.1282V6.67979H56.8311C57.4447 6.67979 57.9593 6.79276 58.3762 7.0175C58.7932 7.24225 59.1041 7.57996 59.3102 8.02945C59.5163 8.47894 59.6187 9.02698 59.6187 9.67237C59.6199 10.3178 59.5174 10.8586 59.3113 11.2937Z" fill="#000025"/>
<path d="M74.7441 5.00672C73.8679 4.57646 72.8151 4.36133 71.5891 4.36133C70.3807 4.36133 69.3373 4.57886 68.4552 5.01393C67.5731 5.449 66.8935 6.06073 66.4142 6.84794C65.9349 7.63515 65.6958 8.56657 65.6958 9.64342C65.6958 10.7191 65.9349 11.6505 66.4142 12.4389C66.8935 13.2261 67.5742 13.8379 68.4552 14.2729C69.3373 14.708 70.3819 14.9255 71.5891 14.9255C72.8162 14.9255 73.8679 14.708 74.7441 14.2729C75.6215 13.8379 76.2964 13.2261 76.771 12.4389C77.2456 11.6517 77.4823 10.7203 77.4823 9.64342C77.4823 8.56778 77.2456 7.63394 76.771 6.84073C76.2975 6.04871 75.6215 5.43698 74.7441 5.00672ZM74.4285 11.3597C74.1942 11.82 73.8397 12.1721 73.365 12.4161C72.8904 12.6613 72.2992 12.7826 71.5902 12.7826C70.8907 12.7826 70.3077 12.66 69.8437 12.4161C69.3785 12.1721 69.024 11.8176 68.7802 11.3524C68.5353 10.8885 68.414 10.3177 68.414 9.64342C68.414 8.96799 68.5353 8.39952 68.7802 7.9344C69.0252 7.47049 69.3797 7.11475 69.8437 6.87077C70.3089 6.6268 70.8907 6.50421 71.5902 6.50421C72.2992 6.50421 72.8916 6.6268 73.365 6.87077C73.8397 7.11595 74.1942 7.47049 74.4285 7.9344C74.6629 8.39952 74.7807 8.96919 74.7807 9.64342C74.7807 10.3273 74.6629 10.8993 74.4285 11.3597Z" fill="#000025"/>
<path d="M83.1054 4.50806H81.3518V14.7778H83.997V11.1254H87.3311V8.98251H83.997V6.67979H90.0634V4.50806H83.997H83.1054Z" fill="#000025"/>
<path d="M95.6938 4.50806H93.9402V14.7778H96.5853V11.1254H99.9194V8.98251H96.5853V6.67979H102.652V4.50806H96.5853H95.6938Z" fill="#000025"/>
<path d="M109.02 4.50806H106.374V14.7778H109.02V4.50806Z" fill="#000025"/>
<path d="M130.775 12.665V10.5966H134.138V8.5138H130.775V6.6209H136.885V4.50806H130.775H129.897H128.158V14.7778H129.897H130.775H137V12.665H130.775Z" fill="#000025"/>
<path d="M0 19.2763H20.0046V0H0V19.2763ZM4.47884 4.5033H6.77891V8.42732H13.3199V4.5033H15.5917V14.773H13.3199V10.5113H6.77891V14.773H4.47884V4.5033Z" fill="#000025"/>
<path d="M121.728 11.3597C121.493 11.82 121.139 12.1721 120.664 12.4161C120.19 12.6613 119.598 12.7826 118.889 12.7826C118.19 12.7826 117.607 12.6601 117.143 12.4161C116.678 12.1721 116.323 11.8176 116.079 11.3524C115.836 10.8885 115.713 10.3177 115.713 9.64343C115.713 8.96799 115.836 8.39832 116.079 7.93441C116.324 7.47049 116.679 7.11475 117.143 6.87078C117.608 6.6268 118.19 6.50421 118.889 6.50421C119.598 6.50421 120.191 6.6268 120.664 6.87078C121.139 7.11595 121.493 7.47049 121.728 7.93441C121.817 8.11108 121.883 8.30698 121.939 8.51369H124.685C124.574 7.89955 124.37 7.3419 124.07 6.84073C123.596 6.04872 122.92 5.43698 122.043 5.00672C121.167 4.57646 120.114 4.36133 118.888 4.36133C117.681 4.36133 116.636 4.57886 115.754 5.01393C114.872 5.449 114.193 6.06073 113.713 6.84794C113.234 7.63515 112.995 8.56658 112.995 9.64343C112.995 10.7191 113.235 11.6505 113.713 12.4377C114.193 13.2249 114.873 13.8367 115.754 14.2717C116.636 14.7068 117.681 14.9243 118.888 14.9243C120.115 14.9243 121.167 14.7068 122.043 14.2717C122.921 13.8367 123.596 13.2249 124.07 12.4377C124.399 11.8933 124.61 11.2791 124.711 10.5965H121.988C121.93 10.8777 121.843 11.1325 121.728 11.3597Z" fill="#000025"/>
<path d="M131.603 23.1616H133.431L135.187 26.9843V23.1616H136.435V28.6452H134.599L132.851 24.8305V28.6452H131.603V23.1616Z" fill="#0FAC5A"/>
<path d="M129.395 26.2612V25.5221C129.395 24.481 128.95 24.1234 128.068 24.1234C127.185 24.1234 126.74 24.481 126.74 25.5221V26.2612C126.74 27.358 127.185 27.6838 128.068 27.6838C128.95 27.6838 129.395 27.358 129.395 26.2612ZM125.373 25.84C125.373 23.734 126.327 23.0505 128.068 23.0505C129.816 23.0505 130.77 23.734 130.77 25.84C130.77 28.0573 129.816 28.7567 128.068 28.7567C126.327 28.7567 125.373 28.0573 125.373 25.84Z" fill="#0FAC5A"/>
<path d="M123.206 23.1616H124.541V28.6452H123.206V23.1616Z" fill="#0FAC5A"/>
<path d="M119.624 24.2981H118.027V23.1616H122.58V24.2981H120.967V28.6452H119.624V24.2981Z" fill="#0FAC5A"/>
<path d="M112.863 25.8877C112.863 23.7737 113.792 23.0505 115.366 23.0505C116.796 23.0505 117.639 23.5671 117.774 24.9658H116.399C116.328 24.2824 115.962 24.1234 115.366 24.1234C114.706 24.1234 114.237 24.3777 114.237 25.4427V26.3407C114.237 27.3977 114.69 27.6838 115.366 27.6838C115.946 27.6838 116.312 27.509 116.407 26.8414H117.782C117.623 28.2242 116.796 28.7567 115.366 28.7567C113.792 28.7567 112.863 28.0653 112.863 25.8877Z" fill="#0FAC5A"/>
<path d="M107.542 26.5948V23.1616H108.885V26.5948C108.885 27.4611 109.219 27.6836 109.871 27.6836C110.522 27.6836 110.864 27.4611 110.864 26.5948V23.1616H112.072V26.5948C112.072 28.1207 111.389 28.7565 109.871 28.7565C108.353 28.7565 107.542 28.1207 107.542 26.5948Z" fill="#0FAC5A"/>
<path d="M102.251 23.1616H104.786C106.034 23.1616 106.741 23.7815 106.741 24.918C106.741 25.6968 106.423 26.2372 105.843 26.5074L106.868 28.6452H105.453L104.524 26.7061H103.586V28.6452H102.251V23.1616ZM105.374 25.0292V24.8305C105.374 24.4729 105.167 24.2345 104.69 24.2345H103.586V25.6253H104.69C105.151 25.6253 105.374 25.3869 105.374 25.0292Z" fill="#0FAC5A"/>
<path d="M98.6695 24.2981H97.0721V23.1616H101.626V24.2981H100.013V28.6452H98.6695V24.2981Z" fill="#0FAC5A"/>
<path d="M92.2634 26.9844H93.6383C93.6621 27.5805 94.0039 27.7156 94.5999 27.7156C95.188 27.7156 95.5377 27.5725 95.5377 27.056C95.5377 25.8639 92.3508 27.0877 92.3508 24.7433C92.3508 23.5433 93.1694 23.0505 94.5205 23.0505C95.8556 23.0505 96.7059 23.5115 96.7377 24.7115H95.3629C95.339 24.2108 95.0211 24.0916 94.5205 24.0916C93.9721 24.0916 93.6463 24.2267 93.6463 24.7354C93.6463 25.8559 96.8331 24.7592 96.8331 26.9685C96.8331 28.2719 96.0225 28.7567 94.5999 28.7567C93.1535 28.7567 92.3191 28.2798 92.2634 26.9844Z" fill="#0FAC5A"/>
<path d="M86.6588 23.1616H88.4867L90.243 26.9843V23.1616H91.4908V28.6452H89.6549L87.9065 24.8305V28.6452H86.6588V23.1616Z" fill="#0FAC5A"/>
<path d="M84.4508 26.2612V25.5221C84.4508 24.481 84.0058 24.1234 83.1236 24.1234C82.2415 24.1234 81.7964 24.481 81.7964 25.5221V26.2612C81.7964 27.358 82.2415 27.6838 83.1236 27.6838C84.0058 27.6838 84.4508 27.358 84.4508 26.2612ZM80.4295 25.84C80.4295 23.734 81.3832 23.0505 83.1236 23.0505C84.872 23.0505 85.8257 23.734 85.8257 25.84C85.8257 28.0573 84.872 28.7567 83.1236 28.7567C81.3832 28.7567 80.4295 28.0573 80.4295 25.84Z" fill="#0FAC5A"/>
<path d="M75.0043 25.8877C75.0043 23.7737 75.9341 23.0505 77.5077 23.0505C78.9382 23.0505 79.7806 23.5671 79.9157 24.9658H78.5408C78.4693 24.2824 78.1037 24.1234 77.5077 24.1234C76.848 24.1234 76.3791 24.3777 76.3791 25.4427V26.3407C76.3791 27.3977 76.8321 27.6838 77.5077 27.6838C78.0878 27.6838 78.4534 27.509 78.5488 26.8414H79.9236C79.7647 28.2242 78.9382 28.7567 77.5077 28.7567C75.9341 28.7567 75.0043 28.0653 75.0043 25.8877Z" fill="#0FAC5A"/>
</svg>
