<?xml version="1.0" encoding="utf-8"?><svg viewBox="0 0 40 40" xmlns="http://www.w3.org/2000/svg" xmlns:xlink="http://www.w3.org/1999/xlink"><style>:root>svg{display:none}:root>svg:target{display:block}</style><svg viewBox="0 0 40 40" id="button-next" xmlns="http://www.w3.org/2000/svg"><path d="M.5.5h39v39H.5z"/><path stroke="currentColor" d="M.5.5h39v39H.5z"/><path d="M17 14l6.364 5.91L17 25.817" stroke="currentColor" stroke-width="1.5"/></svg><svg viewBox="0 0 14 14" id="close" xmlns="http://www.w3.org/2000/svg"><path d="M1.5 0L14 12.5 12.5 14 0 1.5z"/><path d="M12.5 0L0 12.5 1.5 14 14 1.5z"/></svg><svg viewBox="0 0 18 18" id="email" xmlns="http://www.w3.org/2000/svg"><path d="M12.75 3.188h-7.5A3.567 3.567 0 001.687 6.75v4.5a3.567 3.567 0 003.563 3.563h7.5a3.567 3.567 0 003.563-3.563v-4.5a3.567 3.567 0 00-3.563-3.563zm-7.5 1.124h7.5a2.44 2.44 0 012.252 1.51l-4.65 3.1a2.433 2.433 0 01-2.704 0l-4.65-3.1a2.438 2.438 0 012.252-1.51zm7.5 9.375h-7.5a2.44 2.44 0 01-2.438-2.437v-4.2L7.024 9.86a3.56 3.56 0 003.952 0l4.211-2.808v4.199a2.44 2.44 0 01-2.437 2.438z"/></svg><svg viewBox="0 0 19 19" id="telegram" xmlns="http://www.w3.org/2000/svg"><g clip-path="url(#dclip0_28_5151)"><path d="M9.5 0A9.5 9.5 0 000 9.5a9.5 9.5 0 1019 0A9.5 9.5 0 009.5 0z"/><path d="M14.123 5.465l-1.697 8.555s-.238.593-.89.308L7.62 11.326l-1.424-.688L3.8 9.831s-.368-.13-.404-.415c-.036-.285.415-.44.415-.44L13.34 5.24s.783-.344.783.226"/><path d="M7.32 13.924s-.115-.01-.257-.462c-.143-.45-.867-2.824-.867-2.824l5.755-3.654s.332-.202.32 0c0 0 .06.035-.118.201-.178.167-4.52 4.07-4.52 4.07"/><path d="M9.121 12.477L7.573 13.89s-.121.092-.254.035l.297-2.623"/></g><defs><clipPath id="dclip0_28_5151"><path d="M0 0h19v19H0z"/></clipPath></defs></svg><svg viewBox="0 0 18 18" id="user" xmlns="http://www.w3.org/2000/svg"><path d="M8.998 9.562a3.942 3.942 0 003.938-3.937 3.942 3.942 0 00-3.938-3.938 3.942 3.942 0 00-3.937 3.938 3.942 3.942 0 003.937 3.937zm0-6.75a2.815 2.815 0 012.813 2.813 2.815 2.815 0 01-2.813 2.812 2.815 2.815 0 01-2.812-2.812 2.815 2.815 0 012.812-2.813zm5.813 10.663v.758c0 .701-.256 1.373-.72 1.892a.56.56 0 01-.795.044.562.562 0 01-.043-.794c.28-.313.434-.718.434-1.141v-.758c0-1.136-.753-2.118-1.832-2.389a.765.765 0 00-.56.072 4.73 4.73 0 01-4.587.002.757.757 0 00-.563-.075c-1.08.272-1.833 1.254-1.833 2.39v.758c0 .424.154.829.434 1.14a.563.563 0 01-.838.751 2.83 2.83 0 01-.72-1.891v-.758c0-1.652 1.103-3.083 2.682-3.48a1.894 1.894 0 011.39.186c1.073.597 2.402.599 3.484-.002.41-.235.918-.301 1.386-.184 1.578.396 2.681 1.827 2.681 3.479z"/></svg></svg>