<svg width="19" height="19" viewBox="0 0 19 19" fill="none" xmlns="http://www.w3.org/2000/svg">
<g clip-path="url(#clip0_28_5151)">
<path d="M9.5 0C4.25325 0 0 4.25325 0 9.5C0 14.7467 4.25325 19 9.5 19C14.7467 19 19 14.7467 19 9.5C19 4.25325 14.7467 0 9.5 0Z" fill="#D5DCE9"/>
<path d="M14.1225 5.46457L12.4256 14.0197C12.4256 14.0197 12.1884 14.613 11.5358 14.3282L7.62013 11.3262L6.19632 10.6381L3.7995 9.83115C3.7995 9.83115 3.43167 9.70068 3.39605 9.4159C3.36042 9.13112 3.81138 8.97689 3.81138 8.97689L13.3393 5.23924C13.3393 5.23924 14.1224 4.89516 14.1224 5.46471" fill="white"/>
<path d="M7.31934 13.9238C7.31934 13.9238 7.20504 13.9131 7.06254 13.4622C6.92027 13.0113 6.19641 10.6382 6.19641 10.6382L11.9512 6.9837C11.9512 6.9837 12.2835 6.78197 12.2716 6.9837C12.2716 6.9837 12.3309 7.01932 12.1528 7.18543C11.9749 7.3516 7.63217 11.2553 7.63217 11.2553" fill="#9EA3B6"/>
<path d="M9.12147 12.4773L7.57275 13.8894C7.57275 13.8894 7.45162 13.9813 7.31921 13.9237L7.61579 11.3008" fill="#767C94"/>
</g>
<defs>
<clipPath id="clip0_28_5151">
<rect width="19" height="19" fill="white"/>
</clipPath>
</defs>
</svg>
