<svg width="50" height="50" viewBox="0 0 50 50" fill="none" xmlns="http://www.w3.org/2000/svg">
<circle cx="24.6158" cy="24.6154" r="24.6154" fill="#F4F6F9"/>
<path d="M24.6425 36.2097C21.5819 36.2054 18.6479 34.9865 16.4837 32.8202C14.3195 30.6539 13.1018 27.717 13.0975 24.6534C13.0975 18.2828 17.9529 13.0971 24.3173 13.0971H24.3856L24.3596 16.3524H24.3173C19.7448 16.3524 16.3496 20.0765 16.3496 24.6534C16.3495 26.6807 17.0906 28.6379 18.433 30.1558C19.7754 31.6738 21.6263 32.6475 23.6367 32.8934C25.647 33.1393 27.6778 32.6403 29.3458 31.4905C31.0139 30.3408 32.204 28.6198 32.6916 26.6521L35.8494 27.4367C35.2315 29.9433 33.7914 32.1701 31.7597 33.7606C29.7279 35.3511 27.2219 36.2135 24.6425 36.2097Z" stroke="#020426" stroke-width="0.8" stroke-miterlimit="10"/>
<path d="M36.2109 25.1611L32.9587 25.0179C32.9587 24.8974 32.9587 24.7737 32.9587 24.6533C32.9569 22.7216 32.2828 20.851 31.0525 19.3628C29.8222 17.8747 28.1124 16.862 26.2171 16.4988L26.8252 13.3021C29.464 13.8069 31.8446 15.2164 33.5575 17.2881C35.2705 19.3597 36.2087 21.9641 36.2109 24.6533C36.2109 24.8226 36.2109 24.9918 36.2109 25.1611Z" stroke="#1BA84C" stroke-width="0.8" stroke-miterlimit="10"/>
<path d="M28.0999 22.5851L23.7115 26.7212L21.2063 24.3554" stroke="#1BA84C" stroke-width="1.2" stroke-miterlimit="10"/>
</svg>
