<svg width="50" height="50" viewBox="0 0 50 50" fill="none" xmlns="http://www.w3.org/2000/svg">
<circle cx="24.6162" cy="24.6154" r="24.6154" fill="#F4F6F9"/>
<path d="M33.7125 17.6123H32.8906V25.9466" stroke="#1BA84C" stroke-width="0.77" stroke-miterlimit="10"/>
<path d="M30.4247 13H13V36.6712H30.4247V13Z" stroke="#020426" stroke-width="0.77" stroke-miterlimit="10"/>
<path d="M34.457 30.8354H35.9129L35.194 32.2329L34.457 30.8354Z" fill="#1BA84C"/>
<path d="M36.6718 29.8131L35.7184 31.3714L35.1923 32.2328L33.7129 29.8131V15.3013H36.6718V29.8131Z" stroke="#020426" stroke-width="0.77" stroke-miterlimit="10"/>
<path d="M15.1641 18.9175H28.1438" stroke="#020426" stroke-width="0.77" stroke-miterlimit="10"/>
<path d="M15.1641 21.8765H28.1438" stroke="#020426" stroke-width="0.77" stroke-miterlimit="10"/>
<path d="M15.1641 24.8354H28.1438" stroke="#020426" stroke-width="0.77" stroke-miterlimit="10"/>
<path d="M15.1641 27.7944H28.1438" stroke="#020426" stroke-width="0.77" stroke-miterlimit="10"/>
<path d="M15.1641 30.5889H21.6539" stroke="#020426" stroke-width="0.77" stroke-miterlimit="10"/>
<path d="M26.316 34.6985C27.3147 34.6985 28.1243 33.8889 28.1243 32.8903C28.1243 31.8916 27.3147 31.082 26.316 31.082C25.3174 31.082 24.5078 31.8916 24.5078 32.8903C24.5078 33.8889 25.3174 34.6985 26.316 34.6985Z" stroke="#1BA84C" stroke-width="0.7" stroke-miterlimit="10"/>
<path d="M36.672 17.7471H34.8145" stroke="#020426" stroke-width="0.77" stroke-miterlimit="10"/>
</svg>
