<svg width="50" height="50" viewBox="0 0 50 50" fill="none" xmlns="http://www.w3.org/2000/svg">
<circle cx="24.6162" cy="24.6154" r="24.6154" fill="#F4F6F9"/>
<path d="M34.3107 29.2825V26.9099C34.3107 26.8717 34.2961 26.835 34.2703 26.808C34.2444 26.781 34.2093 26.7658 34.1727 26.7658H27.1105C27.1105 26.8127 27.1105 26.8596 27.1105 26.9066C27.1105 27.5891 26.8507 28.2437 26.3884 28.7264C25.9261 29.209 25.299 29.4802 24.6451 29.4802C23.9913 29.4802 23.3642 29.209 22.9019 28.7264C22.4395 28.2437 22.1798 27.5891 22.1798 26.9066C22.1798 26.8596 22.1798 26.8127 22.1798 26.7658H15.1176C15.081 26.7658 15.0459 26.781 15.02 26.808C14.9941 26.835 14.9796 26.8717 14.9796 26.9099V29.2825C14.9796 29.3207 14.9941 29.3573 15.02 29.3844C15.0459 29.4114 15.081 29.4266 15.1176 29.4266H16.8896C16.9185 29.4263 16.9468 29.4356 16.9704 29.453C16.994 29.4705 17.0118 29.4952 17.0212 29.5238C17.1459 29.9181 17.2983 30.3022 17.477 30.6732C17.4913 30.7001 17.4966 30.7312 17.4919 30.7616C17.4873 30.792 17.473 30.8198 17.4513 30.8407L16.1994 32.151C16.1865 32.1644 16.1763 32.1803 16.1693 32.1979C16.1623 32.2154 16.1587 32.2342 16.1587 32.2532C16.1587 32.2722 16.1623 32.291 16.1693 32.3086C16.1763 32.3261 16.1865 32.342 16.1994 32.3554L19.4095 35.7065C19.4223 35.72 19.4376 35.7307 19.4544 35.738C19.4712 35.7453 19.4892 35.7491 19.5074 35.7491C19.5256 35.7491 19.5436 35.7453 19.5604 35.738C19.5772 35.7307 19.5925 35.72 19.6053 35.7065L20.8605 34.3963C20.8806 34.375 20.9069 34.3612 20.9353 34.3569C20.9637 34.3527 20.9927 34.3583 21.0177 34.3728C21.3733 34.5588 21.7413 34.7179 22.1188 34.8486C22.1468 34.8579 22.1712 34.8762 22.1885 34.9009C22.2058 34.9256 22.2151 34.9554 22.2151 34.986V36.8359C22.2151 36.8741 22.2297 36.9107 22.2555 36.9377C22.2814 36.9648 22.3165 36.9799 22.3531 36.9799H26.905C26.9417 36.9799 26.9767 36.9648 27.0026 36.9377C27.0285 36.9107 27.0431 36.8741 27.0431 36.8359V34.986C27.0431 34.9554 27.0524 34.9256 27.0697 34.9009C27.087 34.8762 27.1114 34.8579 27.1394 34.8486C27.5169 34.7179 27.8848 34.5588 28.2404 34.3728C28.2655 34.3583 28.2945 34.3527 28.3229 34.3569C28.3512 34.3612 28.3775 34.375 28.3977 34.3963L29.6529 35.7065C29.6657 35.72 29.681 35.7307 29.6978 35.738C29.7146 35.7453 29.7326 35.7491 29.7508 35.7491C29.769 35.7491 29.787 35.7453 29.8038 35.738C29.8206 35.7307 29.8359 35.72 29.8487 35.7065L33.0588 32.3554C33.0717 32.342 33.0819 32.3261 33.0889 32.3086C33.0959 32.291 33.0995 32.2722 33.0995 32.2532C33.0995 32.2342 33.0959 32.2154 33.0889 32.1979C33.0819 32.1803 33.0717 32.1644 33.0588 32.151L31.8068 30.8407C31.7852 30.8198 31.7709 30.792 31.7662 30.7616C31.7616 30.7312 31.7668 30.7001 31.7812 30.6732C31.9599 30.3022 32.1123 29.9181 32.237 29.5238C32.2464 29.4952 32.2642 29.4705 32.2878 29.453C32.3114 29.4356 32.3397 29.4263 32.3686 29.4266H34.1406C34.1612 29.4317 34.1826 29.4319 34.2033 29.427C34.2239 29.4221 34.2432 29.4123 34.2597 29.3984C34.2761 29.3844 34.2893 29.3667 34.2981 29.3466C34.307 29.3265 34.3113 29.3046 34.3107 29.2825Z" stroke="#1BA84C" stroke-width="0.8" stroke-miterlimit="10"/>
<path d="M14.3822 24.2557V24.2322C14.3822 19.3999 18.1252 15.3351 22.9692 14.5576V13.8673H26.3398V14.5576C31.1838 15.3351 34.9267 19.3999 34.9267 24.2322" stroke="#020426" stroke-width="0.8" stroke-miterlimit="10"/>
<path d="M36.2112 24.0881H13.0987V26.769H36.2112V24.0881Z" stroke="#020426" stroke-width="0.8" stroke-miterlimit="10"/>
<path d="M26.3433 14.561V16.833" stroke="#020426" stroke-width="0.8" stroke-miterlimit="10"/>
<path d="M22.9757 14.561V16.833" stroke="#020426" stroke-width="0.8" stroke-miterlimit="10"/>
<path d="M30.0223 15.8915V20.0636" stroke="#020426" stroke-width="0.8" stroke-miterlimit="10"/>
<path d="M19.4381 15.8915V20.0636" stroke="#020426" stroke-width="0.8" stroke-miterlimit="10"/>
</svg>
