<svg width="398" height="418" viewBox="0 0 398 418" fill="none" xmlns="http://www.w3.org/2000/svg">
<path fill-rule="evenodd" clip-rule="evenodd" d="M234.001 0.00012207H164.001L129.001 60.0001L164.001 120L234.001 120L269.001 60.0001L234.001 0.00012207Z" fill="#A3A7BE"/>
<path fill-rule="evenodd" clip-rule="evenodd" d="M363.001 75.0001H293.001L258.001 135L293.001 195L363.001 195L398.001 135L363.001 75.0001Z" fill="#A3A7BE"/>
<path fill-rule="evenodd" clip-rule="evenodd" d="M363.001 223H293.001L258.001 283L293.001 343L363.001 343L398.001 283L363.001 223Z" fill="#A3A7BE"/>
<path fill-rule="evenodd" clip-rule="evenodd" d="M234.001 298H164.001L129.001 358L164.001 418L234.001 418L269.001 358L234.001 298Z" fill="#A3A7BE"/>
<path fill-rule="evenodd" clip-rule="evenodd" d="M105.001 223H35.0007L0.000686646 283L35.0007 343L105.001 343L140.001 283L105.001 223Z" fill="#A3A7BE"/>
<path fill-rule="evenodd" clip-rule="evenodd" d="M105.001 75.0001H35.0007L0.000686646 135L35.0007 195L105.001 195L140.001 135L105.001 75.0001Z" fill="#A3A7BE"/>
<path fill-rule="evenodd" clip-rule="evenodd" d="M242.999 134L154.999 134L110.999 209L154.999 284H242.999L286.999 209L242.999 134Z" fill="#4AB969"/>
<path d="M94.2832 275.61H98.8121V276.676H94.2832V275.61Z" fill="white"/>
<path fill-rule="evenodd" clip-rule="evenodd" d="M69.5 202L75 207.237L73.8963 208.288L69.5 204.102L65.1037 208.288L64 207.237L69.5 202Z" fill="#4AB969"/>
<path fill-rule="evenodd" clip-rule="evenodd" d="M69.5 209.711L75 214.949L73.8963 216L69.5 211.813L65.1037 216L64 214.949L69.5 209.711Z" fill="#00B451" fill-opacity="0.4"/>
<path fill-rule="evenodd" clip-rule="evenodd" d="M327.5 216L322 210.763L323.104 209.712L327.5 213.898L331.896 209.712L333 210.763L327.5 216Z" fill="#4AB969"/>
<path fill-rule="evenodd" clip-rule="evenodd" d="M327.5 208.289L322 203.051L323.104 202L327.5 206.187L331.896 202L333 203.051L327.5 208.289Z" fill="#00B451" fill-opacity="0.4"/>
<path fill-rule="evenodd" clip-rule="evenodd" d="M257.75 324.763L259.536 317.381L260.998 317.812L259.57 323.712L265.394 325.426L265.036 326.908L257.75 324.763Z" fill="#4AB969"/>
<path fill-rule="evenodd" clip-rule="evenodd" d="M264.428 320.907L266.213 313.525L267.675 313.956L266.248 319.856L272.072 321.57L271.713 323.052L264.428 320.907Z" fill="#00B451" fill-opacity="0.4"/>
<path fill-rule="evenodd" clip-rule="evenodd" d="M128.75 317.763L130.536 325.145L131.998 324.715L130.57 318.814L136.394 317.1L136.036 315.619L128.75 317.763Z" fill="#4AB969"/>
<path fill-rule="evenodd" clip-rule="evenodd" d="M135.428 321.619L137.213 329.001L138.675 328.571L137.248 322.67L143.072 320.956L142.713 319.475L135.428 321.619Z" fill="#00B451" fill-opacity="0.4"/>
<path fill-rule="evenodd" clip-rule="evenodd" d="M140.875 93.7631L139.089 101.145L137.627 100.715L139.055 94.8141L133.231 93.1L133.589 91.6187L140.875 93.7631Z" fill="#4AB969"/>
<path fill-rule="evenodd" clip-rule="evenodd" d="M134.197 97.6191L132.412 105.001L130.95 104.571L132.377 98.6701L126.553 96.9559L126.912 95.4746L134.197 97.6191Z" fill="#00B451" fill-opacity="0.4"/>
<path fill-rule="evenodd" clip-rule="evenodd" d="M269.875 100.763L268.089 93.3814L266.627 93.8117L268.055 99.7123L262.231 101.426L262.589 102.908L269.875 100.763Z" fill="#4AB969"/>
<path fill-rule="evenodd" clip-rule="evenodd" d="M263.197 96.9073L261.412 89.5254L259.95 89.9558L261.377 95.8563L255.553 97.5705L255.912 99.0517L263.197 96.9073Z" fill="#00B451" fill-opacity="0.4"/>
<path d="M222.996 237.257H226.807C228.626 237.257 229.317 237.881 229.317 238.837C229.317 239.608 228.998 240.258 227.75 240.497C229.104 240.697 229.556 241.334 229.556 242.131C229.556 243.406 228.746 244.03 227.112 244.03H222.996V237.257ZM227.325 241.985V241.759C227.325 241.308 227.033 241.095 226.449 241.095H225.121V242.662H226.449C227.033 242.662 227.325 242.45 227.325 241.985ZM227.126 239.395V239.222C227.126 238.837 226.927 238.625 226.369 238.625H225.121V240.006H226.382C226.953 240.006 227.126 239.754 227.126 239.395Z" fill="white"/>
<path d="M219.577 241.255V240.033C219.577 238.944 219.125 238.599 218.262 238.599C217.399 238.599 216.948 238.944 216.948 240.033V241.268C216.948 242.331 217.399 242.689 218.262 242.689C219.125 242.689 219.577 242.331 219.577 241.255ZM214.717 240.644C214.717 237.908 215.925 237.071 218.262 237.071C220.599 237.071 221.794 237.908 221.794 240.644C221.794 243.42 220.599 244.217 218.262 244.217C215.925 244.217 214.717 243.42 214.717 240.644Z" fill="white"/>
<path d="M209.977 238.997H207.879V237.257H214.239V238.997H212.141V244.03H209.977V238.997Z" fill="white"/>
<path d="M205.085 237.257H207.502L205.364 240.484L207.781 244.03H205.151L203.439 241.52H202.947V244.03H200.77V237.257H202.947V239.794H203.412L205.085 237.257Z" fill="white"/>
<path d="M196.173 238.546C195.389 238.546 194.964 238.917 194.964 239.741H197.394C197.381 238.904 196.956 238.546 196.173 238.546ZM192.84 240.671C192.84 238.081 193.995 237.071 196.173 237.071C198.417 237.071 199.559 238.041 199.559 240.471V240.896H194.964V241.255C194.964 242.371 195.442 242.742 196.173 242.742C196.903 242.742 197.301 242.45 197.368 241.813H199.532C199.36 243.433 198.178 244.217 196.173 244.217C193.982 244.217 192.84 243.221 192.84 240.671Z" fill="white"/>
<path d="M189.739 241.255V240.033C189.739 238.944 189.287 238.599 188.424 238.599C187.561 238.599 187.11 238.944 187.11 240.033V241.268C187.11 242.331 187.561 242.689 188.424 242.689C189.287 242.689 189.739 242.331 189.739 241.255ZM184.879 240.644C184.879 237.908 186.087 237.071 188.424 237.071C190.761 237.071 191.956 237.908 191.956 240.644C191.956 243.42 190.761 244.217 188.424 244.217C186.087 244.217 184.879 243.42 184.879 240.644Z" fill="white"/>
<path d="M181.758 241.335V239.967C181.758 239.01 181.32 238.599 180.443 238.599C179.527 238.599 179.129 239.01 179.129 239.967V241.335C179.129 242.291 179.554 242.689 180.43 242.689C181.32 242.689 181.758 242.291 181.758 241.335ZM176.951 237.257H179.062V238.081C179.514 237.377 180.258 237.071 181.28 237.071C182.98 237.071 183.976 238.107 183.976 240.671C183.976 243.141 182.993 244.217 181.28 244.217C180.311 244.217 179.594 243.938 179.129 243.313V246.687H176.951V237.257Z" fill="white"/>
<path d="M169.002 237.257H175.442V244.03H173.264V238.997H171.18V244.03H169.002V237.257Z" fill="white"/>
<path d="M236.834 218.664H238.985V222.86L241.163 218.664H243.619V225.437H241.482V221.253L239.304 225.437H236.834V218.664Z" fill="white"/>
<path d="M228.523 218.664H230.675V222.86L232.852 218.664H235.309V225.437H233.171V221.253L230.993 225.437H228.523V218.664Z" fill="white"/>
<path d="M225.484 227.296V225.437H220.053V218.664H222.23V223.697H224.315V218.664H226.493V223.71H227.542V227.296H225.484Z" fill="white"/>
<path d="M211.924 223.605C211.924 222.17 212.8 221.493 214.792 221.373L216.412 221.267V221.015C216.412 220.218 216.08 219.952 215.416 219.952C214.792 219.952 214.553 220.178 214.447 220.656H212.163C212.309 219.222 213.358 218.478 215.429 218.478C217.541 218.478 218.59 219.262 218.59 221.015V225.437H216.478V224.561C216.054 225.225 215.336 225.623 214.141 225.623C212.734 225.623 211.924 224.826 211.924 223.605ZM214.141 223.458C214.141 223.937 214.447 224.162 215.018 224.162C215.894 224.162 216.412 223.724 216.412 222.821V222.489L215.097 222.595C214.447 222.635 214.141 222.834 214.141 223.286V223.458Z" fill="white"/>
<path d="M204.35 223.379H206.567C206.7 223.99 207.085 224.255 207.789 224.255C208.586 224.255 208.917 224.056 208.917 223.512V223.326C208.917 222.861 208.586 222.635 207.922 222.635H206.886V221.267H207.815C208.453 221.267 208.771 221.094 208.771 220.616V220.457C208.771 219.979 208.439 219.846 207.815 219.846C207.098 219.846 206.766 220.138 206.673 220.696H204.456C204.602 218.996 205.956 218.478 207.776 218.478C209.608 218.478 211.002 218.996 211.002 220.324C211.002 221.055 210.551 221.546 209.674 221.785C210.697 222.037 211.148 222.662 211.148 223.419C211.148 225.039 209.993 225.623 207.789 225.623C205.638 225.623 204.575 225.039 204.35 223.379Z" fill="white"/>
<path d="M196.545 218.664H198.696V222.86L200.874 218.664H203.33V225.437H201.192V221.253L199.015 225.437H196.545V218.664Z" fill="white"/>
<path d="M187.986 225.437V223.538H188.159C188.982 223.538 189.062 223.126 189.062 221.559V218.664H195.024V225.437H192.846V220.403H191.067V221.559C191.067 224.534 190.562 225.437 188.411 225.437H187.986Z" fill="white"/>
<path d="M180.377 223.605C180.377 222.17 181.253 221.493 183.245 221.373L184.865 221.267V221.015C184.865 220.218 184.533 219.952 183.869 219.952C183.245 219.952 183.006 220.178 182.9 220.656H180.616C180.762 219.222 181.811 218.478 183.883 218.478C185.994 218.478 187.043 219.262 187.043 221.015V225.437H184.932V224.561C184.507 225.225 183.79 225.623 182.594 225.623C181.187 225.623 180.377 224.826 180.377 223.605ZM182.594 223.458C182.594 223.937 182.9 224.162 183.471 224.162C184.347 224.162 184.865 223.724 184.865 222.821V222.489L183.551 222.595C182.9 222.635 182.594 222.834 182.594 223.286V223.458Z" fill="white"/>
<path d="M176.165 219.952C175.382 219.952 174.957 220.324 174.957 221.148H177.387C177.373 220.311 176.948 219.952 176.165 219.952ZM172.832 222.077C172.832 219.487 173.987 218.478 176.165 218.478C178.409 218.478 179.551 219.448 179.551 221.878V222.303H174.957V222.662C174.957 223.777 175.435 224.149 176.165 224.149C176.895 224.149 177.294 223.857 177.36 223.219H179.524C179.352 224.84 178.17 225.623 176.165 225.623C173.974 225.623 172.832 224.627 172.832 222.077Z" fill="white"/>
<path d="M169.711 222.741V221.373C169.711 220.417 169.273 220.005 168.397 220.005C167.48 220.005 167.082 220.417 167.082 221.373V222.741C167.082 223.698 167.507 224.096 168.383 224.096C169.273 224.096 169.711 223.698 169.711 222.741ZM164.904 218.664H167.016V219.487C167.467 218.783 168.211 218.478 169.233 218.478C170.933 218.478 171.929 219.514 171.929 222.077C171.929 224.548 170.946 225.623 169.233 225.623C168.264 225.623 167.547 225.344 167.082 224.72V228.094H164.904V218.664Z" fill="white"/>
<path d="M158.882 218.664H161.299L159.161 221.891L161.578 225.437H158.948L157.235 222.927H156.744V225.437H154.566V218.664H156.744V221.2H157.209L158.882 218.664Z" fill="white"/>
<path d="M213.102 208.702V205.116H213.845C214.204 204.532 214.323 203.589 214.323 202.221V200.069H220.524V205.116H221.56V208.702H219.515V206.843H215.16V208.702H213.102ZM218.347 201.809H216.328V202.221C216.328 203.589 216.182 204.532 215.917 205.116H218.347V201.809Z" fill="white"/>
<path d="M210.344 204.067V202.846C210.344 201.756 209.893 201.411 209.03 201.411C208.167 201.411 207.715 201.756 207.715 202.846V204.081C207.715 205.143 208.167 205.502 209.03 205.502C209.893 205.502 210.344 205.143 210.344 204.067ZM205.484 203.456C205.484 200.721 206.693 199.884 209.03 199.884C211.367 199.884 212.562 200.721 212.562 203.456C212.562 206.232 211.367 207.029 209.03 207.029C206.693 207.029 205.484 206.232 205.484 203.456Z" fill="white"/>
<path d="M203.188 206.843L201.807 204.824L200.4 206.843H198.328L200.732 203.416L198.461 200.069H200.692L201.927 201.889L203.188 200.069H205.233L202.989 203.283L205.419 206.843H203.188Z" fill="white"/>
<path d="M189.684 208.702V205.116H190.427C190.786 204.532 190.905 203.589 190.905 202.221V200.069H197.106V205.116H198.142V208.702H196.097V206.843H191.742V208.702H189.684ZM194.929 201.809H192.91V202.221C192.91 203.589 192.764 204.532 192.499 205.116H194.929V201.809Z" fill="white"/>
<path d="M186.923 204.067V202.846C186.923 201.756 186.471 201.411 185.608 201.411C184.745 201.411 184.293 201.756 184.293 202.846V204.081C184.293 205.143 184.745 205.502 185.608 205.502C186.471 205.502 186.923 205.143 186.923 204.067ZM182.062 203.456C182.062 200.721 183.271 199.884 185.608 199.884C187.945 199.884 189.14 200.721 189.14 203.456C189.14 206.232 187.945 207.029 185.608 207.029C183.271 207.029 182.062 206.232 182.062 203.456Z" fill="white"/>
<path d="M174.436 200.069H180.876V206.843H178.698V201.809H176.613V206.843H174.436V200.069Z" fill="white"/>
<path d="M237.521 181.476H239.699V185.819L241.85 181.476H244.307V188.25H242.142V183.907L239.991 188.25H237.521V181.476ZM238.385 178.089H240.137C240.137 178.939 240.376 179.285 240.921 179.285C241.452 179.285 241.704 178.939 241.704 178.089H243.444C243.444 179.683 242.647 180.52 240.921 180.52C239.195 180.52 238.385 179.696 238.385 178.089Z" fill="white"/>
<path d="M226.811 188.25V181.476H228.988V183.415H230.688C232.281 183.415 233.158 184.278 233.158 185.806C233.158 187.386 232.281 188.25 230.688 188.25H226.811ZM230.94 185.952V185.633C230.94 185.182 230.675 184.942 230.144 184.942H228.988V186.722H230.144C230.675 186.722 230.94 186.457 230.94 185.952ZM233.835 181.476H236.013V188.25H233.835V181.476Z" fill="white"/>
<path d="M218.732 181.476H220.91V184H223.114V181.476H225.292V188.25H223.114V185.726H220.91V188.25H218.732V181.476Z" fill="white"/>
<path d="M211.162 184.863C211.162 182.233 212.211 181.291 214.442 181.291C216.328 181.291 217.496 181.928 217.629 183.601H215.398C215.358 183.083 215.079 182.818 214.429 182.818C213.725 182.818 213.393 183.163 213.393 184.066V185.594C213.393 186.576 213.791 186.908 214.429 186.908C215.119 186.908 215.371 186.616 215.438 186.098H217.655C217.469 187.639 216.474 188.436 214.429 188.436C212.278 188.436 211.162 187.599 211.162 184.863Z" fill="white"/>
<path d="M208.419 181.476H210.836L208.698 184.703L211.115 188.25H208.485L206.773 185.739H206.281V188.25H204.104V181.476H206.281V184.013H206.746L208.419 181.476Z" fill="white"/>
<path d="M199.505 182.765C198.721 182.765 198.296 183.137 198.296 183.96H200.726C200.713 183.123 200.288 182.765 199.505 182.765ZM196.172 184.89C196.172 182.3 197.327 181.291 199.505 181.291C201.749 181.291 202.891 182.26 202.891 184.691V185.116H198.296V185.474C198.296 186.59 198.774 186.962 199.505 186.962C200.235 186.962 200.634 186.669 200.7 186.032H202.864C202.692 187.652 201.51 188.436 199.505 188.436C197.314 188.436 196.172 187.44 196.172 184.89Z" fill="white"/>
<path d="M187.934 188.25V186.35H188.106C188.929 186.35 189.009 185.939 189.009 184.371V181.476H194.971V188.25H192.794V183.216H191.014V184.371C191.014 187.346 190.51 188.25 188.359 188.25H187.934Z" fill="white"/>
<path d="M180.502 181.476H186.942V188.25H184.764V183.216H182.68V188.25H180.502V181.476Z" fill="white"/>
<path d="M176.859 188.25V183.083L175.385 187.453H173.566L172.079 183.043V188.25H170.127V181.476H173.274L174.522 185.208L175.797 181.476H178.984V188.25H176.859Z" fill="white"/>
<path d="M166.708 185.474V184.252C166.708 183.163 166.256 182.818 165.393 182.818C164.53 182.818 164.078 183.163 164.078 184.252V185.487C164.078 186.55 164.53 186.908 165.393 186.908C166.256 186.908 166.708 186.55 166.708 185.474ZM161.848 184.863C161.848 182.127 163.056 181.291 165.393 181.291C167.73 181.291 168.925 182.127 168.925 184.863C168.925 187.639 167.73 188.436 165.393 188.436C163.056 188.436 161.848 187.639 161.848 184.863Z" fill="white"/>
<path d="M154 179.085H156.231V182.685H156.815L159.391 179.085H161.768L158.634 183.482L162.02 188.25H159.418L156.815 184.584H156.231V188.25H154V179.085Z" fill="white"/>
<path d="M342.814 151.886H343.824C343.917 152.749 344.434 153.148 345.444 153.148C346.519 153.148 347.05 152.829 347.05 151.966V151.727C347.05 151.009 346.532 150.624 345.616 150.624H344.594V149.907H345.576C346.44 149.907 346.878 149.562 346.878 148.924V148.645C346.878 147.981 346.386 147.729 345.457 147.729C344.474 147.729 344.049 148.061 343.93 148.805H342.921C343.067 147.543 343.93 147.012 345.444 147.012C346.944 147.012 347.887 147.543 347.887 148.725C347.887 149.416 347.568 149.973 346.718 150.212C347.661 150.465 348.06 151.089 348.06 151.806C348.06 153.307 347.117 153.865 345.444 153.865C343.97 153.865 342.947 153.307 342.814 151.886Z" fill="white"/>
<path d="M336.15 147.158H337.133V152.523L340.307 147.158H341.475V153.719H340.479V148.353L337.306 153.719H336.15V147.158Z" fill="white"/>
<path d="M328.428 153.719V152.829H328.534C329.317 152.829 329.623 152.377 329.623 149.933V147.158H334.231V153.719H333.248V147.941H330.526V149.933C330.526 153.187 329.955 153.719 328.587 153.719H328.428Z" fill="white"/>
<path d="M321.877 151.979C321.877 150.77 322.474 150.146 324.334 150L326.352 149.814V149.615C326.352 148.273 325.834 147.742 324.692 147.742C323.855 147.742 323.298 148.021 323.112 148.911H322.089C322.289 147.623 323.165 147.012 324.705 147.012C326.485 147.012 327.348 147.782 327.348 149.615V153.719H326.392V152.643C325.94 153.413 325.117 153.865 323.988 153.865C322.607 153.865 321.877 153.188 321.877 151.979ZM322.886 152.045C322.886 152.749 323.324 153.134 324.187 153.134C325.303 153.134 326.352 152.563 326.352 150.97V150.491L324.44 150.664C323.351 150.77 322.886 151.062 322.886 151.846V152.045Z" fill="white"/>
<path d="M315.207 147.158H316.203V149.973H319.377V147.158H320.373V153.719H319.377V150.77H316.203V153.719H315.207V147.158Z" fill="white"/>
<path d="M307.908 151.979C307.908 150.77 308.506 150.146 310.365 150L312.383 149.814V149.615C312.383 148.273 311.865 147.742 310.723 147.742C309.887 147.742 309.329 148.021 309.143 148.911H308.121C308.32 147.623 309.196 147.012 310.737 147.012C312.516 147.012 313.379 147.782 313.379 149.615V153.719H312.423V152.643C311.971 153.413 311.148 153.865 310.02 153.865C308.639 153.865 307.908 153.188 307.908 151.979ZM308.917 152.045C308.917 152.749 309.356 153.134 310.219 153.134C311.334 153.134 312.383 152.563 312.383 150.97V150.491L310.471 150.664C309.382 150.77 308.917 151.062 308.917 151.846V152.045Z" fill="white"/>
<path d="M359.232 128.564H360.228V134.142L363.296 128.564H364.557V135.125H363.561V129.547L360.494 135.125H359.232V128.564ZM359.976 125.483H360.879C360.879 126.452 361.198 126.904 361.888 126.904C362.565 126.904 362.897 126.452 362.897 125.483H363.8C363.8 126.824 363.163 127.581 361.888 127.581C360.627 127.581 359.976 126.851 359.976 125.483Z" fill="white"/>
<path d="M350.426 135.125V128.564H351.422V130.915H353.36C354.728 130.915 355.458 131.658 355.458 132.947C355.458 134.355 354.728 135.125 353.36 135.125H350.426ZM354.449 133.133V132.761C354.449 132.163 354.104 131.658 353.188 131.658H351.422V134.381H353.188C354.104 134.381 354.449 133.837 354.449 133.133ZM356.322 128.564H357.317V135.125H356.322V128.564Z" fill="white"/>
<path d="M343.828 128.564H346.657C348.052 128.564 348.662 129.175 348.662 130.131C348.662 130.769 348.437 131.433 347.56 131.698C348.636 131.937 348.928 132.575 348.928 133.266C348.928 134.567 348.224 135.125 346.777 135.125H343.828V128.564ZM347.932 133.385V133.066C347.932 132.416 347.534 132.07 346.63 132.07H344.811V134.408H346.63C347.534 134.408 347.932 134.089 347.932 133.385ZM347.666 130.437V130.184C347.666 129.626 347.414 129.268 346.551 129.268H344.811V131.419H346.617C347.414 131.419 347.666 130.981 347.666 130.437Z" fill="white"/>
<path d="M341.287 132.283V131.393C341.287 129.852 340.583 129.162 339.348 129.162C338.113 129.162 337.396 129.852 337.396 131.393V132.296C337.396 133.823 338.113 134.527 339.348 134.527C340.583 134.527 341.287 133.823 341.287 132.283ZM336.387 131.845C336.387 129.361 337.462 128.418 339.348 128.418C341.247 128.418 342.296 129.361 342.296 131.845C342.296 134.395 341.247 135.271 339.348 135.271C337.462 135.271 336.387 134.395 336.387 131.845Z" fill="white"/>
<path d="M329.9 131.871C329.9 129.494 330.817 128.418 332.702 128.418C334.229 128.418 335.172 129.016 335.331 130.344H334.322C334.189 129.454 333.565 129.162 332.689 129.162C331.494 129.162 330.91 129.826 330.91 131.366V132.349C330.91 133.97 331.72 134.527 332.689 134.527C333.685 134.527 334.203 134.116 334.335 133.332H335.345C335.159 134.647 334.203 135.271 332.689 135.271C331.029 135.271 329.9 134.488 329.9 131.871Z" fill="white"/>
<path d="M323.209 128.564H324.205V131.38H327.379V128.564H328.375V135.125H327.379V132.176H324.205V135.125H323.209V128.564Z" fill="white"/>
<path d="M315.91 133.385C315.91 132.177 316.508 131.552 318.367 131.406L320.385 131.22V131.021C320.385 129.68 319.867 129.148 318.725 129.148C317.889 129.148 317.331 129.427 317.145 130.317H316.123C316.322 129.029 317.198 128.418 318.739 128.418C320.518 128.418 321.381 129.188 321.381 131.021V135.125H320.425V134.049C319.973 134.82 319.15 135.271 318.021 135.271C316.64 135.271 315.91 134.594 315.91 133.385ZM316.919 133.452C316.919 134.155 317.358 134.541 318.221 134.541C319.336 134.541 320.385 133.97 320.385 132.376V131.898L318.473 132.07C317.384 132.177 316.919 132.469 316.919 133.252V133.452Z" fill="white"/>
<path d="M309.242 128.564H310.238V131.38H313.413V128.564H314.409V135.125H313.413V132.176H310.238V135.125H309.242V128.564Z" fill="white"/>
<path d="M302.006 128.564H302.988V133.93L306.162 128.564H307.331V135.125H306.335V129.759L303.161 135.125H302.006V128.564Z" fill="white"/>
<path d="M295.262 133.797C292.354 133.784 291 132.748 291 130.344C291 127.86 292.354 126.904 295.262 126.891V125.815H296.325V126.891C299.233 126.904 300.574 127.86 300.574 130.344C300.574 132.748 299.233 133.784 296.325 133.797V135.271H295.262V133.797ZM295.262 127.741C292.899 127.741 292.076 128.471 292.076 130.065V130.676C292.076 132.243 292.819 132.947 295.262 132.96V127.741ZM299.498 130.676V130.065C299.498 128.471 298.702 127.741 296.325 127.741V132.96C298.741 132.947 299.498 132.243 299.498 130.676Z" fill="white"/>
<path d="M213.914 74.8542H214.923C215.016 75.7175 215.534 76.1159 216.543 76.1159C217.619 76.1159 218.15 75.7972 218.15 74.9339V74.6948C218.15 73.9776 217.632 73.5925 216.716 73.5925H215.693V72.8753H216.676C217.539 72.8753 217.977 72.53 217.977 71.8925V71.6136C217.977 70.9495 217.486 70.6972 216.557 70.6972C215.574 70.6972 215.149 71.0292 215.029 71.7729H214.02C214.166 70.5112 215.029 69.98 216.543 69.98C218.044 69.98 218.987 70.5112 218.987 71.6933C218.987 72.3839 218.668 72.9417 217.818 73.1808C218.761 73.4331 219.159 74.0573 219.159 74.7745C219.159 76.2753 218.216 76.8331 216.543 76.8331C215.069 76.8331 214.047 76.2753 213.914 74.8542Z" fill="white"/>
<path d="M207.248 70.126H208.231V75.4916L211.404 70.126H212.573V76.6869H211.577V71.3213L208.403 76.6869H207.248V70.126Z" fill="white"/>
<path d="M199.529 76.6869V75.7971H199.636C200.419 75.7971 200.724 75.3455 200.724 72.9018V70.126H205.332V76.6869H204.349V70.9096H201.627V72.9018C201.627 76.1557 201.056 76.6869 199.689 76.6869H199.529Z" fill="white"/>
<path d="M192.977 74.9472C192.977 73.7386 193.574 73.1144 195.433 72.9683L197.451 72.7823V72.5831C197.451 71.2417 196.934 70.7104 195.792 70.7104C194.955 70.7104 194.397 70.9894 194.211 71.8792H193.189C193.388 70.5909 194.265 69.98 195.805 69.98C197.584 69.98 198.447 70.7503 198.447 72.5831V76.687H197.491V75.6112C197.04 76.3815 196.217 76.8331 195.088 76.8331C193.707 76.8331 192.977 76.1558 192.977 74.9472ZM193.986 75.0136C193.986 75.7175 194.424 76.1026 195.287 76.1026C196.402 76.1026 197.451 75.5315 197.451 73.9378V73.4597L195.539 73.6323C194.45 73.7386 193.986 74.0308 193.986 74.8144V75.0136Z" fill="white"/>
<path d="M186.307 70.126H187.303V72.9416H190.477V70.126H191.473V76.6869H190.477V73.7385H187.303V76.6869H186.307V70.126Z" fill="white"/>
<path d="M179.01 74.9472C179.01 73.7386 179.607 73.1144 181.466 72.9683L183.485 72.7823V72.5831C183.485 71.2417 182.967 70.7104 181.825 70.7104C180.988 70.7104 180.431 70.9894 180.245 71.8792H179.222C179.421 70.5909 180.298 69.98 181.838 69.98C183.617 69.98 184.481 70.7503 184.481 72.5831V76.687H183.525V75.6112C183.073 76.3815 182.25 76.8331 181.121 76.8331C179.74 76.8331 179.01 76.1558 179.01 74.9472ZM180.019 75.0136C180.019 75.7175 180.457 76.1026 181.32 76.1026C182.436 76.1026 183.485 75.5315 183.485 73.9378V73.4597L181.573 73.6323C180.484 73.7386 180.019 74.0308 180.019 74.8144V75.0136Z" fill="white"/>
<path d="M242.924 51.5329H243.92V57.111L246.987 51.5329H248.249V58.0938H247.253V52.5157L244.185 58.0938H242.924V51.5329ZM243.667 48.4517H244.57C244.57 49.4212 244.889 49.8728 245.58 49.8728C246.257 49.8728 246.589 49.4212 246.589 48.4517H247.492C247.492 49.7931 246.854 50.5501 245.58 50.5501C244.318 50.5501 243.667 49.8196 243.667 48.4517Z" fill="white"/>
<path d="M234.117 58.0937V51.5327H235.113V53.8835H237.052C238.419 53.8835 239.15 54.6272 239.15 55.9155C239.15 57.3233 238.419 58.0937 237.052 58.0937H234.117ZM238.141 56.1015V55.7296C238.141 55.1319 237.795 54.6272 236.879 54.6272H235.113V57.3499H236.879C237.795 57.3499 238.141 56.8054 238.141 56.1015ZM240.013 51.5327H241.009V58.0937H240.013V51.5327Z" fill="white"/>
<path d="M227.035 51.5327H228.031V54.3483H231.205V51.5327H232.202V58.0937H231.205V55.1452H228.031V58.0937H227.035V51.5327Z" fill="white"/>
<path d="M219.957 51.5327H220.953V54.3483H224.127V51.5327H225.123V58.0937H224.127V55.1452H220.953V58.0937H219.957V51.5327Z" fill="white"/>
<path d="M217.419 55.2516V54.3617C217.419 52.8211 216.716 52.1305 215.481 52.1305C214.246 52.1305 213.529 52.8211 213.529 54.3617V55.2648C213.529 56.7922 214.246 57.4961 215.481 57.4961C216.716 57.4961 217.419 56.7922 217.419 55.2516ZM212.52 54.8133C212.52 52.3297 213.595 51.3867 215.481 51.3867C217.38 51.3867 218.429 52.3297 218.429 54.8133C218.429 57.3633 217.38 58.2398 215.481 58.2398C213.595 58.2398 212.52 57.3633 212.52 54.8133Z" fill="white"/>
<path d="M205.668 51.5327H206.651V56.8983L209.824 51.5327H210.993V58.0937H209.997V52.728L206.823 58.0937H205.668V51.5327Z" fill="white"/>
<path d="M203.558 59.953V58.0937H198.379V51.5327H199.375V57.3101H202.469V51.5327H203.465V57.2968H204.474V59.953H203.558Z" fill="white"/>
<path d="M191.143 51.5327H192.125V56.8983L195.299 51.5327H196.467V58.0937H195.471V52.728L192.298 58.0937H191.143V51.5327Z" fill="white"/>
<path d="M186.834 52.3163H184.656V51.5327H189.994V52.3163H187.83V58.0937H186.834V52.3163Z" fill="white"/>
<path d="M178.607 54.8398C178.607 52.4625 179.524 51.3867 181.409 51.3867C182.936 51.3867 183.879 51.9844 184.038 53.3125H183.029C182.896 52.4227 182.272 52.1305 181.396 52.1305C180.201 52.1305 179.617 52.7945 179.617 54.3352V55.318C179.617 56.9383 180.427 57.4961 181.396 57.4961C182.392 57.4961 182.91 57.0844 183.043 56.3008H184.052C183.866 57.6156 182.91 58.2398 181.396 58.2398C179.736 58.2398 178.607 57.4563 178.607 54.8398Z" fill="white"/>
<path d="M174.681 52.1172C173.513 52.1172 172.915 52.7016 172.875 54.1758H176.514C176.46 52.6883 175.85 52.1172 174.681 52.1172ZM171.893 54.8133C171.893 52.3562 172.875 51.3867 174.681 51.3867C176.514 51.3867 177.496 52.3562 177.496 54.5344V54.8398H172.875V55.2516C172.875 56.7789 173.526 57.4961 174.681 57.4961C175.743 57.4961 176.261 57.0578 176.407 56.2875H177.403C177.177 57.5227 176.301 58.2398 174.681 58.2398C172.875 58.2398 171.893 57.2703 171.893 54.8133Z" fill="white"/>
<path d="M165.662 51.5327H168.491C169.886 51.5327 170.496 52.1437 170.496 53.0999C170.496 53.7374 170.271 54.4015 169.394 54.6671C170.47 54.9062 170.762 55.5437 170.762 56.2343C170.762 57.5358 170.058 58.0937 168.611 58.0937H165.662V51.5327ZM169.766 56.3538V56.0351C169.766 55.3843 169.368 55.039 168.464 55.039H166.645V57.3765H168.464C169.368 57.3765 169.766 57.0577 169.766 56.3538ZM169.5 53.4054V53.153C169.5 52.5952 169.248 52.2366 168.385 52.2366H166.645V54.3882H168.451C169.248 54.3882 169.5 53.9499 169.5 53.4054Z" fill="white"/>
<path d="M158.582 51.5327H159.578V54.3483H162.752V51.5327H163.748V58.0937H162.752V55.1452H159.578V58.0937H158.582V51.5327Z" fill="white"/>
<path d="M155.577 50.43L151.182 58.0933H150V48.9292H151.062V56.5925L155.471 48.9292H156.639V58.0933H155.577V50.43Z" fill="white"/>
<path d="M85.2109 150.558H86.2201C86.3131 151.421 86.8309 151.82 87.8401 151.82C88.9157 151.82 89.4468 151.501 89.4468 150.637V150.398C89.4468 149.681 88.929 149.296 88.0127 149.296H86.9903V148.579H87.9729C88.836 148.579 89.2742 148.234 89.2742 147.596V147.317C89.2742 146.653 88.7829 146.401 87.8534 146.401C86.8708 146.401 86.4459 146.733 86.3263 147.477H85.3172C85.4632 146.215 86.3263 145.684 87.8401 145.684C89.3406 145.684 90.2834 146.215 90.2834 147.397C90.2834 148.087 89.9647 148.645 89.1149 148.884C90.0577 149.137 90.456 149.761 90.456 150.478C90.456 151.979 89.5132 152.537 87.8401 152.537C86.3662 152.537 85.3437 151.979 85.2109 150.558Z" fill="white"/>
<path d="M78.5469 145.83H79.5295V151.195L82.7031 145.83H83.8716V152.391H82.8757V147.025L79.7021 152.391H78.5469V145.83Z" fill="white"/>
<path d="M70.8262 152.391V151.501H70.9324C71.7158 151.501 72.0213 151.049 72.0213 148.605V145.83H76.629V152.391H75.6463V146.613H72.9242V148.605C72.9242 151.859 72.3532 152.391 70.9855 152.391H70.8262Z" fill="white"/>
<path d="M64.2734 150.651C64.2734 149.442 64.871 148.818 66.73 148.672L68.7484 148.486V148.287C68.7484 146.945 68.2305 146.414 67.0885 146.414C66.252 146.414 65.6943 146.693 65.5084 147.583H64.4859C64.6851 146.295 65.5615 145.684 67.1018 145.684C68.8811 145.684 69.7443 146.454 69.7443 148.287V152.391H68.7882V151.315C68.3367 152.085 67.5134 152.537 66.3847 152.537C65.0038 152.537 64.2734 151.859 64.2734 150.651ZM65.2826 150.717C65.2826 151.421 65.7208 151.806 66.5839 151.806C67.6993 151.806 68.7484 151.235 68.7484 149.641V149.163L66.8362 149.336C65.7474 149.442 65.2826 149.734 65.2826 150.518V150.717Z" fill="white"/>
<path d="M57.6035 145.83H58.5996V148.645H61.7738V145.83H62.7699V152.391H61.7738V149.442H58.5996V152.391H57.6035V145.83Z" fill="white"/>
<path d="M50.3086 150.651C50.3086 149.442 50.9061 148.818 52.7652 148.672L54.7835 148.486V148.287C54.7835 146.945 54.2656 146.414 53.1237 146.414C52.2871 146.414 51.7294 146.693 51.5435 147.583H50.5211C50.7202 146.295 51.5966 145.684 53.137 145.684C54.9163 145.684 55.7794 146.454 55.7794 148.287V152.391H54.8233V151.315C54.3719 152.085 53.5486 152.537 52.4199 152.537C51.0389 152.537 50.3086 151.859 50.3086 150.651ZM51.3178 150.717C51.3178 151.421 51.756 151.806 52.6191 151.806C53.7345 151.806 54.7835 151.235 54.7835 149.641V149.163L52.8714 149.336C51.7825 149.442 51.3178 149.734 51.3178 150.518V150.717Z" fill="white"/>
<path d="M119.908 127.236H120.904V132.814L123.971 127.236H125.233V133.797H124.237V128.219L121.17 133.797H119.908V127.236ZM120.652 124.155H121.555C121.555 125.124 121.873 125.576 122.564 125.576C123.241 125.576 123.573 125.124 123.573 124.155H124.476C124.476 125.496 123.839 126.253 122.564 126.253C121.302 126.253 120.652 125.523 120.652 124.155Z" fill="white"/>
<path d="M111.102 133.797V127.236H112.097V129.587H114.036C115.404 129.587 116.134 130.33 116.134 131.619C116.134 133.026 115.404 133.797 114.036 133.797H111.102ZM115.125 131.805V131.433C115.125 130.835 114.78 130.33 113.864 130.33H112.097V133.053H113.864C114.78 133.053 115.125 132.508 115.125 131.805ZM116.997 127.236H117.993V133.797H116.997V127.236Z" fill="white"/>
<path d="M104.021 127.236H105.018V130.051H108.192V127.236H109.188V133.797H108.192V130.848H105.018V133.797H104.021V127.236Z" fill="white"/>
<path d="M96.9414 127.236H97.9375V130.051H101.112V127.236H102.108V133.797H101.112V130.848H97.9375V133.797H96.9414V127.236Z" fill="white"/>
<path d="M94.4018 130.955V130.065C94.4018 128.524 93.698 127.834 92.4631 127.834C91.2282 127.834 90.5111 128.524 90.5111 130.065V130.968C90.5111 132.495 91.2282 133.199 92.4631 133.199C93.698 133.199 94.4018 132.495 94.4018 130.955ZM89.502 130.516C89.502 128.033 90.5775 127.09 92.4631 127.09C94.362 127.09 95.411 128.033 95.411 130.516C95.411 133.066 94.362 133.943 92.4631 133.943C90.5775 133.943 89.502 133.066 89.502 130.516Z" fill="white"/>
<path d="M82.6504 127.236H83.633V132.601L86.8066 127.236H87.9751V133.797H86.9792V128.431L83.8056 133.797H82.6504V127.236Z" fill="white"/>
<path d="M80.542 135.656V133.797H75.3633V127.236H76.3592V133.013H79.4531V127.236H80.449V133H81.4582V135.656H80.542Z" fill="white"/>
<path d="M68.0664 132.057C68.0664 130.848 68.6639 130.224 70.523 130.078L72.5413 129.892V129.693C72.5413 128.352 72.0235 127.82 70.8815 127.82C70.0449 127.82 69.4872 128.099 69.3013 128.989H68.2789C68.478 127.701 69.3544 127.09 70.8948 127.09C72.6741 127.09 73.5372 127.86 73.5372 129.693V133.797H72.5812V132.721C72.1297 133.491 71.3064 133.943 70.1777 133.943C68.7967 133.943 68.0664 133.266 68.0664 132.057ZM69.0756 132.123C69.0756 132.827 69.5138 133.213 70.3769 133.213C71.4923 133.213 72.5413 132.641 72.5413 131.048V130.57L70.6292 130.742C69.5403 130.848 69.0756 131.141 69.0756 131.924V132.123Z" fill="white"/>
<path d="M64.3222 128.019H62.1445V127.236H67.4826V128.019H65.3181V133.797H64.3222V128.019Z" fill="white"/>
<path d="M55.7852 132.057C55.7852 130.848 56.3827 130.224 58.2417 130.078L60.2601 129.892V129.693C60.2601 128.352 59.7422 127.82 58.6002 127.82C57.7637 127.82 57.206 128.099 57.0201 128.989H55.9976C56.1968 127.701 57.0732 127.09 58.6135 127.09C60.3929 127.09 61.256 127.86 61.256 129.693V133.797H60.2999V132.721C59.8484 133.491 59.0252 133.943 57.8965 133.943C56.5155 133.943 55.7852 133.266 55.7852 132.057ZM56.7943 132.123C56.7943 132.827 57.2325 133.213 58.0957 133.213C59.2111 133.213 60.2601 132.641 60.2601 131.048V130.57L58.3479 130.742C57.2591 130.848 56.7943 131.141 56.7943 131.924V132.123Z" fill="white"/>
<path d="M49.2656 127.236H50.3146L52.3197 132.681L54.3115 127.236H55.241L52.4658 134.726C51.9745 136.068 51.4964 136.453 50.2748 136.453H49.6773V135.669H50.1686C51.0184 135.669 51.3105 135.444 51.6292 134.541L51.8151 134.036L49.2656 127.236Z" fill="white"/>
<path d="M42.3691 133.797V132.907H42.4754C43.2588 132.907 43.5642 132.455 43.5642 130.012V127.236H48.1719V133.797H47.1893V128.019H44.4672V130.012C44.4672 133.266 43.8962 133.797 42.5285 133.797H42.3691Z" fill="white"/>
<path d="M36.1113 127.236H41.198V133.797H40.202V128.019H37.1074V133.797H36.1113V127.236Z" fill="white"/>
<path d="M29.2402 130.543C29.2402 128.166 30.1565 127.09 32.042 127.09C33.5691 127.09 34.5119 127.687 34.6712 129.016H33.662C33.5293 128.126 32.9052 127.834 32.0288 127.834C30.8337 127.834 30.2494 128.498 30.2494 130.038V131.021C30.2494 132.641 31.0594 133.199 32.0288 133.199C33.0247 133.199 33.5425 132.787 33.6753 132.004H34.6845C34.4986 133.319 33.5425 133.943 32.0288 133.943C30.3689 133.943 29.2402 133.159 29.2402 130.543Z" fill="white"/>
<path d="M23.6348 127.236H24.6307V130.105H25.3344L27.5387 127.236H28.6276L26.171 130.423L28.9462 133.797H27.7246L25.3212 130.888H24.6307V133.797H23.6348V127.236Z" fill="white"/>
<path d="M15 131.3H16.0756C16.288 132.602 16.9785 133.08 18.3197 133.08C19.9662 133.08 20.9489 132.057 20.9489 129.733V129.547H17.3105V128.71H20.9489V128.591C20.9489 126.28 20.0326 125.35 18.4525 125.35C17.1644 125.35 16.3411 125.775 16.1552 127.209H15.0797C15.332 125.257 16.5005 124.487 18.4657 124.487C20.7762 124.487 22.0244 125.762 22.0244 129.202C22.0244 132.642 20.6833 133.943 18.333 133.943C16.2748 133.943 15.239 133.093 15 131.3Z" fill="white"/>
<path d="M84.5293 305.948H85.5385C85.6314 306.811 86.1493 307.21 87.1585 307.21C88.2341 307.21 88.7652 306.891 88.7652 306.028V305.789C88.7652 305.071 88.2473 304.686 87.3311 304.686H86.3086V303.969H87.2913C88.1544 303.969 88.5926 303.624 88.5926 302.986V302.707C88.5926 302.043 88.1013 301.791 87.1718 301.791C86.1891 301.791 85.7642 302.123 85.6447 302.867H84.6355C84.7816 301.605 85.6447 301.074 87.1585 301.074C88.659 301.074 89.6018 301.605 89.6018 302.787C89.6018 303.478 89.2831 304.035 88.4332 304.275C89.376 304.527 89.7744 305.151 89.7744 305.868C89.7744 307.369 88.8316 307.927 87.1585 307.927C85.6845 307.927 84.6621 307.369 84.5293 305.948Z" fill="white"/>
<path d="M77.8633 301.22H78.8459V306.585L82.0195 301.22H83.188V307.781H82.1921V302.415L79.0185 307.781H77.8633V301.22Z" fill="white"/>
<path d="M70.1426 307.781V306.891H70.2488C71.0323 306.891 71.3377 306.439 71.3377 303.996V301.22H75.9454V307.781H74.9627V302.003H72.2406V303.996C72.2406 307.249 71.6696 307.781 70.3019 307.781H70.1426Z" fill="white"/>
<path d="M63.5898 306.041C63.5898 304.832 64.1874 304.208 66.0464 304.062L68.0648 303.876V303.677C68.0648 302.335 67.5469 301.804 66.4049 301.804C65.5684 301.804 65.0107 302.083 64.8248 302.973H63.8023C64.0015 301.685 64.8779 301.074 66.4182 301.074C68.1976 301.074 69.0607 301.844 69.0607 303.677V307.781H68.1046V306.705C67.6531 307.475 66.8298 307.927 65.7012 307.927C64.3202 307.927 63.5898 307.25 63.5898 306.041ZM64.599 306.107C64.599 306.811 65.0372 307.196 65.9003 307.196C67.0157 307.196 68.0648 306.625 68.0648 305.032V304.553L66.1526 304.726C65.0638 304.832 64.599 305.125 64.599 305.908V306.107Z" fill="white"/>
<path d="M56.9219 301.22H57.918V304.035H61.0922V301.22H62.0883V307.781H61.0922V304.832H57.918V307.781H56.9219V301.22Z" fill="white"/>
<path d="M49.623 306.041C49.623 304.832 50.2206 304.208 52.0796 304.062L54.098 303.876V303.677C54.098 302.335 53.5801 301.804 52.4381 301.804C51.6016 301.804 51.0439 302.083 50.858 302.973H49.8355C50.0347 301.685 50.9111 301.074 52.4514 301.074C54.2308 301.074 55.0939 301.844 55.0939 303.677V307.781H54.1378V306.705C53.6863 307.475 52.863 307.927 51.7344 307.927C50.3534 307.927 49.623 307.25 49.623 306.041ZM50.6322 306.107C50.6322 306.811 51.0704 307.196 51.9335 307.196C53.0489 307.196 54.098 306.625 54.098 305.032V304.553L52.1858 304.726C51.097 304.832 50.6322 305.125 50.6322 305.908V306.107Z" fill="white"/>
<path d="M104.688 282.626H105.683V288.204L108.751 282.626H110.012V289.187H109.016V283.609L105.949 289.187H104.688V282.626ZM105.431 279.545H106.334C106.334 280.514 106.653 280.966 107.343 280.966C108.02 280.966 108.352 280.514 108.352 279.545H109.255C109.255 280.886 108.618 281.643 107.343 281.643C106.082 281.643 105.431 280.913 105.431 279.545Z" fill="white"/>
<path d="M95.8809 289.187V282.626H96.8768V284.977H98.8154C100.183 284.977 100.913 285.721 100.913 287.009C100.913 288.417 100.183 289.187 98.8154 289.187H95.8809ZM99.9043 287.195V286.823C99.9043 286.225 99.5591 285.721 98.6428 285.721H96.8768V288.443H98.6428C99.5591 288.443 99.9043 287.899 99.9043 287.195ZM101.777 282.626H102.772V289.187H101.777V282.626Z" fill="white"/>
<path d="M88.8008 282.626H89.7969V285.442H92.9711V282.626H93.9672V289.187H92.9711V286.238H89.7969V289.187H88.8008V282.626Z" fill="white"/>
<path d="M82.4219 289.187V282.626H83.418V284.977H85.357C86.725 284.977 87.4555 285.721 87.4555 287.009C87.4555 288.417 86.725 289.187 85.357 289.187H82.4219ZM86.4461 287.195V286.823C86.4461 286.225 86.1008 285.721 85.1844 285.721H83.418V288.443H85.1844C86.1008 288.443 86.4461 287.899 86.4461 287.195Z" fill="white"/>
<path d="M74.7012 289.187V288.297H74.8074C75.5908 288.297 75.8963 287.846 75.8963 285.402V282.626H80.504V289.187H79.5213V283.41H76.7992V285.402C76.7992 288.656 76.2282 289.187 74.8605 289.187H74.7012Z" fill="white"/>
<path d="M71.1967 283.21C70.0282 283.21 69.4307 283.795 69.3908 285.269H73.0292C72.9761 283.782 72.3653 283.21 71.1967 283.21ZM68.4082 285.907C68.4082 283.45 69.3908 282.48 71.1967 282.48C73.0292 282.48 74.0118 283.45 74.0118 285.628V285.933H69.3908V286.345C69.3908 287.872 70.0415 288.589 71.1967 288.589C72.259 288.589 72.7769 288.151 72.923 287.381H73.9189C73.6931 288.616 72.8167 289.333 71.1967 289.333C69.3908 289.333 68.4082 288.364 68.4082 285.907Z" fill="white"/>
<path d="M64.6523 283.41H62.4746V282.626H67.8126V283.41H65.6482V289.187H64.6523V283.41Z" fill="white"/>
<path d="M56.0039 282.626H56.9865V287.992L60.1601 282.626H61.3287V289.187H60.3328V283.821L57.1592 289.187H56.0039V282.626Z" fill="white"/>
<path d="M53.4682 286.345V285.455C53.4682 283.914 52.7644 283.224 51.5295 283.224C50.2946 283.224 49.5775 283.914 49.5775 285.455V286.358C49.5775 287.885 50.2946 288.589 51.5295 288.589C52.7644 288.589 53.4682 287.885 53.4682 286.345ZM48.5684 285.907C48.5684 283.423 49.6439 282.48 51.5295 282.48C53.4284 282.48 54.4774 283.423 54.4774 285.907C54.4774 288.457 53.4284 289.333 51.5295 289.333C49.6439 289.333 48.5684 288.457 48.5684 285.907Z" fill="white"/>
<path d="M46.4217 286.371V285.442C46.4217 283.848 45.6648 283.224 44.4697 283.224C43.2614 283.224 42.5311 283.848 42.5311 285.442V286.371C42.5311 287.872 43.3278 288.589 44.4697 288.589C45.6648 288.589 46.4217 287.846 46.4217 286.371ZM41.5352 282.626H42.4779V283.662C42.9294 282.839 43.6863 282.48 44.6556 282.48C46.4483 282.48 47.4309 283.41 47.4309 285.907C47.4309 288.39 46.4615 289.333 44.6556 289.333C43.7261 289.333 42.9825 289.001 42.5311 288.244V291.843H41.5352V282.626Z" fill="white"/>
<path d="M37.2265 283.41H35.0488V282.626H40.3869V283.41H38.2224V289.187H37.2265V283.41Z" fill="white"/>
<path d="M29 285.933C29 283.556 29.9162 282.48 31.8018 282.48C33.3289 282.48 34.2716 283.078 34.431 284.406H33.4218C33.289 283.516 32.6649 283.224 31.7885 283.224C30.5934 283.224 30.0092 283.888 30.0092 285.428V286.411C30.0092 288.032 30.8192 288.589 31.7885 288.589C32.7844 288.589 33.3023 288.178 33.4351 287.394H34.4443C34.2584 288.709 33.3023 289.333 31.7885 289.333C30.1287 289.333 29 288.55 29 285.933Z" fill="white"/>
<path d="M95.9369 267.751V266.861C95.9369 265.321 95.2332 264.63 93.9983 264.63C92.7633 264.63 92.0463 265.321 92.0463 266.861V267.764C92.0463 269.292 92.7633 269.996 93.9983 269.996C95.2332 269.996 95.9369 269.292 95.9369 267.751ZM91.0371 267.313C91.0371 264.829 92.1127 263.886 93.9983 263.886C95.8971 263.886 96.9461 264.829 96.9461 267.313C96.9461 269.863 95.8971 270.739 93.9983 270.739C92.1127 270.739 91.0371 269.863 91.0371 267.313Z" fill="white"/>
<path d="M84.3418 264.032H85.3379V266.848H88.5121V264.032H89.5082V270.593H88.5121V267.645H85.3379V270.593H84.3418V264.032Z" fill="white"/>
<path d="M80.0312 264.816H77.8535V264.032H83.1915V264.816H81.0271V270.593H80.0312V264.816Z" fill="white"/>
<path d="M72.3984 264.032H73.3943V266.901H74.0981L76.3024 264.032H77.3912L74.9347 267.22L77.7099 270.593H76.4883L74.0848 267.685H73.3943V270.593H72.3984V264.032Z" fill="white"/>
<path d="M68.0834 264.617C66.9149 264.617 66.3174 265.201 66.2775 266.675H69.9159C69.8628 265.188 69.252 264.617 68.0834 264.617ZM65.2949 267.313C65.2949 264.856 66.2775 263.886 68.0834 263.886C69.9159 263.886 70.8985 264.856 70.8985 267.034V267.339H66.2775V267.751C66.2775 269.278 66.9282 269.996 68.0834 269.996C69.1457 269.996 69.6636 269.557 69.8097 268.787H70.8056C70.5798 270.022 69.7034 270.739 68.0834 270.739C66.2775 270.739 65.2949 269.77 65.2949 267.313Z" fill="white"/>
<path d="M63.1284 267.751V266.861C63.1284 265.321 62.4246 264.63 61.1897 264.63C59.9547 264.63 59.2377 265.321 59.2377 266.861V267.764C59.2377 269.292 59.9547 269.996 61.1897 269.996C62.4246 269.996 63.1284 269.292 63.1284 267.751ZM58.2285 267.313C58.2285 264.829 59.3041 263.886 61.1897 263.886C63.0885 263.886 64.1375 264.829 64.1375 267.313C64.1375 269.863 63.0885 270.739 61.1897 270.739C59.3041 270.739 58.2285 269.863 58.2285 267.313Z" fill="white"/>
<path d="M56.0819 267.778V266.848C56.0819 265.254 55.325 264.63 54.1299 264.63C52.9215 264.63 52.1912 265.254 52.1912 266.848V267.778C52.1912 269.278 52.9879 269.996 54.1299 269.996C55.325 269.996 56.0819 269.252 56.0819 267.778ZM51.1953 264.032H52.1381V265.068C52.5896 264.245 53.3465 263.886 54.3158 263.886C56.1084 263.886 57.0911 264.816 57.0911 267.313C57.0911 269.796 56.1217 270.739 54.3158 270.739C53.3863 270.739 52.6427 270.407 52.1912 269.65V273.25H51.1953V264.032Z" fill="white"/>
<path d="M42.9121 261.429H49.2593V270.593H48.197V262.306H43.9744V270.593H42.9121V261.429Z" fill="white"/>
<path d="M213.932 376.339H214.941C215.034 377.202 215.552 377.601 216.561 377.601C217.636 377.601 218.168 377.282 218.168 376.419V376.18C218.168 375.462 217.65 375.077 216.733 375.077H215.711V374.36H216.694C217.557 374.36 217.995 374.015 217.995 373.377V373.098C217.995 372.434 217.504 372.182 216.574 372.182C215.591 372.182 215.167 372.514 215.047 373.258H214.038C214.184 371.996 215.047 371.465 216.561 371.465C218.061 371.465 219.004 371.996 219.004 373.178C219.004 373.869 218.685 374.427 217.836 374.666C218.778 374.918 219.177 375.542 219.177 376.259C219.177 377.76 218.234 378.318 216.561 378.318C215.087 378.318 214.064 377.76 213.932 376.339Z" fill="white"/>
<path d="M207.268 371.611H208.25V376.976L211.424 371.611H212.592V378.172H211.596V372.806L208.423 378.172H207.268V371.611Z" fill="white"/>
<path d="M199.551 378.172V377.282H199.657C200.44 377.282 200.746 376.83 200.746 374.387V371.611H205.354V378.172H204.371V372.394H201.649V374.387C201.649 377.641 201.078 378.172 199.71 378.172H199.551Z" fill="white"/>
<path d="M192.996 376.432C192.996 375.223 193.594 374.599 195.453 374.453L197.471 374.267V374.068C197.471 372.727 196.953 372.195 195.811 372.195C194.975 372.195 194.417 372.474 194.231 373.364H193.209C193.408 372.076 194.284 371.465 195.824 371.465C197.604 371.465 198.467 372.235 198.467 374.068V378.172H197.511V377.096C197.059 377.866 196.236 378.318 195.107 378.318C193.726 378.318 192.996 377.641 192.996 376.432ZM194.005 376.498C194.005 377.202 194.443 377.587 195.307 377.587C196.422 377.587 197.471 377.016 197.471 375.423V374.945L195.559 375.117C194.47 375.223 194.005 375.516 194.005 376.299V376.498Z" fill="white"/>
<path d="M186.324 371.611H187.32V374.426H190.495V371.611H191.491V378.172H190.495V375.223H187.32V378.172H186.324V371.611Z" fill="white"/>
<path d="M179.029 376.432C179.029 375.223 179.627 374.599 181.486 374.453L183.504 374.267V374.068C183.504 372.727 182.986 372.195 181.844 372.195C181.008 372.195 180.45 372.474 180.264 373.364H179.242C179.441 372.076 180.317 371.465 181.858 371.465C183.637 371.465 184.5 372.235 184.5 374.068V378.172H183.544V377.096C183.093 377.866 182.269 378.318 181.141 378.318C179.76 378.318 179.029 377.641 179.029 376.432ZM180.038 376.498C180.038 377.202 180.477 377.587 181.34 377.587C182.455 377.587 183.504 377.016 183.504 375.423V374.945L181.592 375.117C180.503 375.223 180.038 375.516 180.038 376.299V376.498Z" fill="white"/>
<path d="M238.963 353.017H239.959V358.595L243.026 353.017H244.288V359.578H243.292V354L240.224 359.578H238.963V353.017ZM239.706 349.936H240.609C240.609 350.906 240.928 351.357 241.619 351.357C242.296 351.357 242.628 350.906 242.628 349.936H243.531C243.531 351.277 242.893 352.034 241.619 352.034C240.357 352.034 239.706 351.304 239.706 349.936Z" fill="white"/>
<path d="M230.154 359.578V353.017H231.15V355.368H233.089C234.457 355.368 235.187 356.112 235.187 357.4C235.187 358.808 234.457 359.578 233.089 359.578H230.154ZM234.178 357.586V357.214C234.178 356.616 233.832 356.112 232.916 356.112H231.15V358.834H232.916C233.832 358.834 234.178 358.29 234.178 357.586ZM236.05 353.017H237.046V359.578H236.05V353.017Z" fill="white"/>
<path d="M223.553 353.017H226.382C227.776 353.017 228.387 353.628 228.387 354.584C228.387 355.222 228.161 355.886 227.285 356.151C228.361 356.391 228.653 357.028 228.653 357.719C228.653 359.02 227.949 359.578 226.501 359.578H223.553V353.017ZM227.657 357.838V357.519C227.657 356.869 227.258 356.523 226.355 356.523H224.536V358.861H226.355C227.258 358.861 227.657 358.542 227.657 357.838ZM227.391 354.89V354.637C227.391 354.08 227.139 353.721 226.275 353.721H224.536V355.873H226.342C227.139 355.873 227.391 355.434 227.391 354.89Z" fill="white"/>
<path d="M221.017 356.736V355.846C221.017 354.305 220.313 353.615 219.078 353.615C217.843 353.615 217.126 354.305 217.126 355.846V356.749C217.126 358.277 217.843 358.98 219.078 358.98C220.313 358.98 221.017 358.277 221.017 356.736ZM216.117 356.298C216.117 353.814 217.193 352.871 219.078 352.871C220.977 352.871 222.026 353.814 222.026 356.298C222.026 358.848 220.977 359.724 219.078 359.724C217.193 359.724 216.117 358.848 216.117 356.298Z" fill="white"/>
<path d="M211.494 353.017H215.585V353.801H212.49V359.578H211.494V353.017Z" fill="white"/>
<path d="M204.416 353.017H205.412V355.833H208.586V353.017H209.582V359.578H208.586V356.63H205.412V359.578H204.416V353.017Z" fill="white"/>
<path d="M197.18 353.017H198.162V358.383L201.336 353.017H202.504V359.578H201.509V354.212L198.335 359.578H197.18V353.017Z" fill="white"/>
<path d="M192.867 353.801H190.689V353.017H196.027V353.801H193.863V359.578H192.867V353.801Z" fill="white"/>
<path d="M187.279 353.602C186.11 353.602 185.513 354.186 185.473 355.66H189.111C189.058 354.173 188.447 353.602 187.279 353.602ZM184.49 356.298C184.49 353.841 185.473 352.871 187.279 352.871C189.111 352.871 190.094 353.841 190.094 356.019V356.324H185.473V356.736C185.473 358.263 186.124 358.98 187.279 358.98C188.341 358.98 188.859 358.542 189.005 357.772H190.001C189.775 359.007 188.899 359.724 187.279 359.724C185.473 359.724 184.49 358.755 184.49 356.298Z" fill="white"/>
<path d="M178.869 353.017H179.865V355.886H180.569L182.773 353.017H183.862L181.405 356.205L184.181 359.578H182.959L180.556 356.669H179.865V359.578H178.869V353.017Z" fill="white"/>
<path d="M176.338 356.763V355.833C176.338 354.239 175.581 353.615 174.386 353.615C173.177 353.615 172.447 354.239 172.447 355.833V356.763C172.447 358.263 173.244 358.98 174.386 358.98C175.581 358.98 176.338 358.237 176.338 356.763ZM171.451 353.017H172.394V354.053C172.845 353.23 173.602 352.871 174.572 352.871C176.364 352.871 177.347 353.801 177.347 356.298C177.347 358.781 176.378 359.724 174.572 359.724C173.642 359.724 172.899 359.392 172.447 358.635V362.234H171.451V353.017Z" fill="white"/>
<path d="M164.156 357.838C164.156 356.63 164.754 356.005 166.613 355.859L168.631 355.673V355.474C168.631 354.133 168.113 353.602 166.971 353.602C166.135 353.602 165.577 353.88 165.391 354.77H164.369C164.568 353.482 165.444 352.871 166.985 352.871C168.764 352.871 169.627 353.641 169.627 355.474V359.578H168.671V358.502C168.22 359.273 167.396 359.724 166.268 359.724C164.887 359.724 164.156 359.047 164.156 357.838ZM165.165 357.905C165.165 358.609 165.604 358.994 166.467 358.994C167.582 358.994 168.631 358.423 168.631 356.829V356.351L166.719 356.523C165.63 356.63 165.165 356.922 165.165 357.705V357.905Z" fill="white"/>
<path d="M161.569 359.578V351.33L158.78 358.184H157.731L154.969 351.277V359.578H154V350.414H155.607L158.316 357.148L161.051 350.414H162.631V359.578H161.569Z" fill="white"/>
<path d="M342.588 300.636H343.597C343.69 301.5 344.208 301.898 345.217 301.898C346.293 301.898 346.824 301.579 346.824 300.716V300.477C346.824 299.76 346.306 299.375 345.39 299.375H344.367V298.658H345.35C346.213 298.658 346.651 298.312 346.651 297.675V297.396C346.651 296.732 346.16 296.479 345.23 296.479C344.248 296.479 343.823 296.811 343.703 297.555H342.694C342.84 296.293 343.703 295.762 345.217 295.762C346.718 295.762 347.66 296.293 347.66 297.475C347.66 298.166 347.342 298.724 346.492 298.963C347.435 299.215 347.833 299.84 347.833 300.557C347.833 302.058 346.89 302.615 345.217 302.615C343.743 302.615 342.721 302.058 342.588 300.636Z" fill="white"/>
<path d="M335.92 295.908H336.903V301.274L340.076 295.908H341.245V302.469H340.249V297.104L337.075 302.469H335.92V295.908Z" fill="white"/>
<path d="M328.199 302.469V301.579H328.305C329.089 301.579 329.394 301.128 329.394 298.684V295.908H334.002V302.469H333.019V296.692H330.297V298.684C330.297 301.938 329.726 302.469 328.359 302.469H328.199Z" fill="white"/>
<path d="M321.646 300.729C321.646 299.521 322.244 298.897 324.103 298.75L326.121 298.565V298.365C326.121 297.024 325.604 296.493 324.462 296.493C323.625 296.493 323.067 296.772 322.881 297.661H321.859C322.058 296.373 322.935 295.762 324.475 295.762C326.254 295.762 327.117 296.533 327.117 298.365V302.469H326.161V301.393C325.71 302.164 324.886 302.615 323.758 302.615C322.377 302.615 321.646 301.938 321.646 300.729ZM322.656 300.796C322.656 301.5 323.094 301.885 323.957 301.885C325.072 301.885 326.121 301.314 326.121 299.72V299.242L324.209 299.415C323.12 299.521 322.656 299.813 322.656 300.597V300.796Z" fill="white"/>
<path d="M314.977 295.908H315.973V298.724H319.147V295.908H320.143V302.469H319.147V299.521H315.973V302.469H314.977V295.908Z" fill="white"/>
<path d="M307.68 300.729C307.68 299.521 308.277 298.897 310.136 298.75L312.155 298.565V298.365C312.155 297.024 311.637 296.493 310.495 296.493C309.658 296.493 309.101 296.772 308.915 297.661H307.892C308.091 296.373 308.968 295.762 310.508 295.762C312.287 295.762 313.151 296.533 313.151 298.365V302.469H312.194V301.393C311.743 302.164 310.92 302.615 309.791 302.615C308.41 302.615 307.68 301.938 307.68 300.729ZM308.689 300.796C308.689 301.5 309.127 301.885 309.99 301.885C311.106 301.885 312.155 301.314 312.155 299.72V299.242L310.242 299.415C309.154 299.521 308.689 299.813 308.689 300.597V300.796Z" fill="white"/>
<path d="M362.264 277.315H363.26V282.893L366.327 277.315H367.588V283.876H366.593V278.297L363.525 283.876H362.264V277.315ZM363.007 274.233H363.91C363.91 275.203 364.229 275.654 364.919 275.654C365.597 275.654 365.929 275.203 365.929 274.233H366.832C366.832 275.575 366.194 276.332 364.919 276.332C363.658 276.332 363.007 275.601 363.007 274.233Z" fill="white"/>
<path d="M355.025 277.314H356.008V282.68L359.182 277.314H360.35V283.875H359.354V278.51L356.181 283.875H355.025V277.314Z" fill="white"/>
<path d="M348.801 277.314H349.797V280.183H350.5L352.705 277.314H353.794L351.337 280.502L354.112 283.875H352.891L350.487 280.967H349.797V283.875H348.801V277.314Z" fill="white"/>
<path d="M341.936 280.622C341.936 278.244 342.852 277.168 344.737 277.168C346.264 277.168 347.207 277.766 347.367 279.094H346.357C346.225 278.204 345.6 277.912 344.724 277.912C343.529 277.912 342.945 278.576 342.945 280.117V281.1C342.945 282.72 343.755 283.278 344.724 283.278C345.72 283.278 346.238 282.866 346.371 282.083H347.38C347.194 283.397 346.238 284.022 344.724 284.022C343.064 284.022 341.936 283.238 341.936 280.622Z" fill="white"/>
<path d="M338.003 277.899C336.835 277.899 336.237 278.483 336.197 279.958H339.836C339.783 278.47 339.172 277.899 338.003 277.899ZM335.215 280.595C335.215 278.138 336.197 277.168 338.003 277.168C339.836 277.168 340.818 278.138 340.818 280.316V280.622H336.197V281.033C336.197 282.561 336.848 283.278 338.003 283.278C339.066 283.278 339.584 282.84 339.73 282.069H340.726C340.5 283.304 339.623 284.022 338.003 284.022C336.197 284.022 335.215 283.052 335.215 280.595Z" fill="white"/>
<path d="M332.679 281.126C332.174 281.219 331.762 281.259 331.125 281.259C329.318 281.259 328.654 280.595 328.654 278.948V277.314H329.65V278.908C329.65 280.09 330.089 280.462 331.231 280.462C331.829 280.462 332.187 280.436 332.679 280.329V277.314H333.675V283.875H332.679V281.126Z" fill="white"/>
<path d="M321.869 277.314H322.852V282.68L326.025 277.314H327.194V283.875H326.198V278.51L323.024 283.875H321.869V277.314Z" fill="white"/>
<path d="M313.564 285.735V283.079H314.282C314.786 282.242 314.945 280.993 314.945 279.227V277.314H319.659V283.079H320.669V285.735H319.752V283.875H314.481V285.735H313.564ZM318.663 278.098H315.848V279.227C315.848 280.993 315.689 282.255 315.277 283.079H318.663V278.098Z" fill="white"/>
<path d="M307.139 277.314H308.121V282.68L311.295 277.314H312.463V283.875H311.468V278.51L308.294 283.875H307.139V277.314Z" fill="white"/>
<path d="M304.605 281.06V280.13C304.605 278.536 303.848 277.912 302.653 277.912C301.445 277.912 300.715 278.536 300.715 280.13V281.06C300.715 282.561 301.511 283.278 302.653 283.278C303.848 283.278 304.605 282.534 304.605 281.06ZM299.719 277.315H300.662V278.35C301.113 277.527 301.87 277.168 302.839 277.168C304.632 277.168 305.614 278.098 305.614 280.595C305.614 283.079 304.645 284.022 302.839 284.022C301.91 284.022 301.166 283.69 300.715 282.933V286.532H299.719V277.315Z" fill="white"/>
<path d="M297.056 279.772V278.723C297.056 276.452 296.166 275.429 294.321 275.429C292.515 275.429 291.599 276.452 291.599 278.723V279.772C291.599 282.03 292.515 283.159 294.321 283.159C296.166 283.159 297.056 282.03 297.056 279.772ZM288 274.712H289.062V278.763H290.536C290.656 275.761 291.917 274.566 294.321 274.566C296.87 274.566 298.132 275.894 298.132 279.281C298.132 282.575 296.87 284.022 294.321 284.022C291.877 284.022 290.616 282.681 290.523 279.626H289.062V283.876H288V274.712Z" fill="white"/>
</svg>
